<svg width="40" height="40" viewBox="0 0 40 40" fill="none" xmlns="http://www.w3.org/2000/svg">
<path d="M36.4975 15.0726C36.7874 16.5765 37.97 18.6028 38.0033 20.3629L38.01 20.5093C38.0067 21.3577 37.7402 22.1197 36.9839 22.6387C36.9206 22.6753 36.854 22.7186 36.784 22.7618C36.3976 23.058 35.9578 23.3441 35.5214 23.5837C34.9684 23.9164 34.3787 24.1959 33.8656 24.2125C33.7391 24.2225 33.6191 24.2092 33.5092 24.1759C33.2593 24.1094 33.0394 23.9596 32.8629 23.6868C32.3731 22.9748 32.04 21.6938 31.8468 20.7056C31.7335 20.0934 31.6502 19.7806 31.5736 19.6875C31.457 19.6176 31.3237 20.0302 31.1072 21.2712C30.6708 23.5703 29.4648 25.763 29.3915 28.1087C29.2949 29.8555 29.8845 31.6555 29.4281 33.3724C29.3282 33.775 29.1183 34.2208 28.8384 34.67C28.8318 34.68 28.8284 34.6866 28.8218 34.6966C28.7552 34.8031 28.6852 34.9096 28.6119 35.016V35.0194C27.899 36.0309 26.8595 37.0157 25.8268 37.5547C25.7701 37.5913 25.7102 37.6313 25.6502 37.6679L25.6069 37.6878C25.3704 37.8276 25.0739 37.9041 24.7474 37.944C24.6141 37.9673 24.4842 37.9806 24.3576 37.9806H24.2843C23.9845 37.9906 23.6646 37.9906 23.3348 37.9906C22.7951 37.9906 22.2488 37.9873 21.6957 37.9906H18.3309H16.6919C16.362 37.9906 16.0422 37.9939 15.7424 37.9806H15.6691C15.5425 37.9806 15.4126 37.9673 15.2793 37.944C14.9528 37.9008 14.6596 37.8276 14.4198 37.6878L14.3765 37.6679C14.3165 37.6313 14.2565 37.5913 14.1966 37.5547C13.1638 37.0157 12.1211 36.0309 11.4115 35.0194C11.3348 34.9129 11.2649 34.8064 11.1982 34.7C11.1916 34.69 11.1882 34.6833 11.1816 34.6733C10.9017 34.2242 10.6919 33.7783 10.5919 33.3757C10.1322 31.6589 10.7252 29.8588 10.6286 28.112C10.5519 25.7663 9.34927 23.5737 8.91284 21.2746C8.6963 20.0335 8.56304 19.6209 8.44643 19.6908C8.36981 19.7839 8.28652 20.0967 8.17325 20.7089C7.98003 21.6971 7.64688 22.9781 7.15715 23.6901C6.98058 23.963 6.7607 24.116 6.51084 24.1792C6.4009 24.2158 6.28097 24.2258 6.15437 24.2158C5.64133 24.1992 5.05165 23.9197 4.49863 23.587C4.0622 23.3507 3.62245 23.0613 3.236 22.7652C3.16603 22.7219 3.0994 22.6786 3.03611 22.642C2.27986 22.123 2.01001 21.3611 2.01001 20.5126V20.3762V20.3629C2.04332 18.6028 3.22267 16.5765 3.51584 15.0726C3.59913 14.6034 3.63244 14.1243 3.64577 13.6452C3.63577 12.1978 3.42589 10.6939 3.89896 9.30648C4.59857 6.69127 6.89063 5.02765 9.56581 4.37218C10.2787 4.18586 10.9917 4.00286 11.678 3.73002C12.6341 3.36403 13.5902 2.78176 14.3731 2.43573C15.3426 2.02648 16.3954 1.9799 17.4714 1.99321C18.2177 1.98322 18.9806 2.00984 19.7035 2.00984C19.7535 2.00652 19.8068 2.00319 19.8568 2.00319H20.0067H20.1566C20.2066 2.00984 20.2599 2.00984 20.3098 2.00984C21.0328 2.01317 21.7957 1.98322 22.5419 1.99321C23.618 1.9799 24.6708 2.02981 25.6402 2.43573C26.4231 2.78176 27.3826 3.36403 28.3354 3.73002C29.0217 4.00286 29.7346 4.18253 30.4475 4.37218C33.1227 5.02765 35.4148 6.69459 36.1144 9.30648C36.5841 10.6939 36.3776 12.1978 36.3676 13.6452C36.3809 14.1276 36.4142 14.6034 36.4975 15.0726Z" stroke="#202437" stroke-width="2" stroke-miterlimit="10"/>
<path d="M26.01 32.991H26.0021C24.6095 32.6532 23.5153 31.9218 23.01 30.991" stroke="#202437" stroke-width="2" stroke-miterlimit="10" stroke-linecap="round"/>
<path d="M16.01 5.99097L15.706 12.1974C15.6657 13.0161 15.5045 13.8281 15.2298 14.6109C14.717 16.059 13.8232 17.3766 12.6181 18.4496L12.01 18.991" stroke="#202437" stroke-width="2" stroke-miterlimit="10" stroke-linecap="round"/>
<path d="M24.01 5.99097L24.314 12.1974C24.3543 13.0161 24.5155 13.8281 24.7902 14.6109C25.303 16.059 26.1968 17.3766 27.402 18.4496L28.01 18.991" stroke="#202437" stroke-width="2" stroke-miterlimit="10" stroke-linecap="round"/>
<path d="M20 17V34" stroke="#202437" stroke-width="2" stroke-miterlimit="10" stroke-linecap="round"/>
<path d="M14.01 27.991H14.018C15.4105 27.6532 16.5047 26.9218 17.01 25.991" stroke="#202437" stroke-width="2" stroke-miterlimit="10" stroke-linecap="round"/>
<path d="M26.01 27.991H26.0021C24.6095 27.6532 23.5153 26.9218 23.01 25.991" stroke="#202437" stroke-width="2" stroke-miterlimit="10" stroke-linecap="round"/>
<path d="M14.01 32.991H14.018C15.4105 32.6532 16.5047 31.9218 17.01 30.991" stroke="#202437" stroke-width="2" stroke-miterlimit="10" stroke-linecap="round"/>
</svg>
