<svg width="34" height="29" viewBox="0 0 34 29" fill="none" xmlns="http://www.w3.org/2000/svg">
<g clip-path="url(#clip0_135_559)">
<path d="M7.69996 1.78009L4.03996 1.50009C3.16996 1.43009 2.32996 1.86009 1.85996 2.60009C1.35996 3.41009 1.38996 4.44009 1.93996 5.21009L4.56996 8.88009C6.12996 11.0601 8.85996 12.0801 11.47 11.4501L15.49 10.4901L13.42 5.81009C12.4 3.51009 10.21 1.96009 7.69996 1.77009V1.78009Z" stroke="#202437" stroke-width="3" stroke-miterlimit="10" stroke-linecap="round"/>
<path d="M28.3499 10.2101L30.9099 7.59015C31.5199 6.96015 31.7299 6.05015 31.4599 5.21015C31.1599 4.31015 30.3499 3.67015 29.3999 3.60015L24.8999 3.26015C22.2299 3.06015 19.6999 4.50015 18.4999 6.90015L16.6599 10.6001L21.5799 12.0101C23.9899 12.7001 26.5899 12.0101 28.3499 10.2101Z" stroke="#202437" stroke-width="3" stroke-miterlimit="10" stroke-linecap="round"/>
<path d="M3 27H31.14" stroke="#202437" stroke-width="3" stroke-miterlimit="10" stroke-linecap="round"/>
<path d="M16.96 26.6901L16.68 24.3801C16.55 23.3001 16.73 22.2001 17.2 21.2201C17.98 19.5901 17.94 17.6901 17.11 16.0901L16.61 15.1201C16.15 14.2401 15.93 13.2501 15.97 12.2601L16.03 10.5801" stroke="#202437" stroke-width="3" stroke-miterlimit="10" stroke-linecap="round"/>
</g>
<defs>
<clipPath id="clip0_135_559">
<rect width="33.21" height="28.36" fill="white"/>
</clipPath>
</defs>
</svg>
