<svg width="40" height="40" viewBox="0 0 40 40" fill="none" xmlns="http://www.w3.org/2000/svg">
<path d="M36.9937 20.3513V20.3638L37 20.4895C36.9969 21.2908 36.7451 22.0104 36.0309 22.5007C35.9711 22.5352 35.9082 22.5761 35.8421 22.6169C35.4771 22.8966 35.0618 23.1668 34.6496 23.3931C34.1273 23.7073 33.5704 23.9713 33.0859 23.987C32.9663 23.9964 32.853 23.9839 32.7492 23.9524C32.5132 23.8896 32.3056 23.7482 32.1388 23.4905C31.6763 22.818 31.3617 21.6082 31.1792 20.6749C31.0722 20.0967 30.9935 19.8013 30.9212 19.7134C30.811 19.6474 30.6852 20.037 30.4807 21.2091C30.0685 23.3805 28.9295 25.4514 28.8603 27.6667C28.769 29.3165 29.3259 31.0165 28.8949 32.638C28.8005 33.0182 28.6023 33.4393 28.338 33.8635C28.3317 33.873 28.3285 33.8793 28.3222 33.8887C28.2593 33.9892 28.1932 34.0898 28.124 34.1904V34.1935C27.4507 35.1488 26.469 36.0789 25.4936 36.588C25.4401 36.6226 25.3835 36.6603 25.3269 36.6948L25.286 36.7137C25.0626 36.8457 24.7825 36.9179 24.4742 36.9557C24.3483 36.9777 24.2256 36.9902 24.1061 36.9902H24.0368C23.7537 36.9996 23.4516 36.9997 23.1401 36.9997C22.6304 36.9997 22.1144 36.9965 21.5921 36.9997H18.4142H16.8662C16.5547 36.9997 16.2526 37.0028 15.9695 36.9902H15.9002C15.7807 36.9902 15.658 36.9777 15.5321 36.9557C15.2238 36.9148 14.9469 36.8457 14.7203 36.7137L14.6794 36.6948C14.6228 36.6603 14.5662 36.6226 14.5095 36.588C13.5341 36.0789 12.5493 35.1488 11.8791 34.1935C11.8068 34.0929 11.7407 33.9924 11.6778 33.8918C11.6715 33.8824 11.6683 33.8761 11.662 33.8667C11.3977 33.4425 11.1995 33.0214 11.1051 32.6412C10.6709 31.0197 11.231 29.3196 11.1397 27.6699C11.0674 25.4545 9.93152 23.3837 9.51934 21.2123C9.31483 20.0402 9.18897 19.6505 9.07885 19.7165C9.00648 19.8045 8.92782 20.0999 8.82084 20.6781C8.63835 21.6114 8.32371 22.8212 7.86119 23.4937C7.69443 23.7513 7.48677 23.8959 7.25079 23.9556C7.14696 23.9901 7.03369 23.9996 6.91412 23.9901C6.42958 23.9744 5.87266 23.7105 5.35036 23.3962C4.93818 23.1731 4.52286 22.8997 4.15788 22.6201C4.0918 22.5792 4.02887 22.5384 3.96909 22.5038C3.25486 22.0136 3 21.294 3 20.4927V20.3638V20.3513C3.03146 18.6889 4.14529 16.7752 4.42217 15.3549C4.50083 14.9118 4.5323 14.4593 4.54488 14.0068C4.53544 12.6398 4.33722 11.2195 4.78401 9.90909C5.44475 7.43917 7.60948 5.86798 10.136 5.24893C10.8094 5.07295 11.4827 4.90012 12.1309 4.64244C13.0339 4.29678 13.9369 3.74686 14.6763 3.42005C15.5919 3.03354 16.5862 2.98955 17.6024 3.00212C18.3072 2.99269 19.0278 3.01783 19.7105 3.01783C19.7577 3.01468 19.8081 3.01154 19.8553 3.01154H19.9969H20.1384C20.1856 3.01783 20.236 3.01783 20.2832 3.01783C20.9659 3.02097 21.6865 2.99269 22.3913 3.00212C23.4076 2.98955 24.4018 3.03668 25.3174 3.42005C26.0568 3.74686 26.963 4.29678 27.8629 4.64244C28.511 4.90012 29.1843 5.06981 29.8577 5.24893C32.3842 5.86798 34.549 7.44231 35.2097 9.90909C35.6533 11.2195 35.4583 12.6398 35.4488 14.0068C35.4614 14.4624 35.4929 14.9118 35.5715 15.3549C35.8453 16.7752 36.9622 18.6889 36.9937 20.3513Z" stroke="#202437" stroke-width="2.5" stroke-miterlimit="10"/>
<path d="M29.3168 12.2808C29.578 12.4536 29.7692 12.6289 29.885 12.8239L29.9254 12.8857C29.99 13.014 30.0062 13.1449 29.9981 13.2807C29.9981 13.4436 29.9631 13.6214 29.8796 13.8288C29.8769 13.8411 29.8715 13.851 29.8688 13.8634C29.7584 14.2683 29.6103 14.6682 29.4191 15.046C29.271 15.3595 29.096 15.6607 28.8725 15.9348C28.6894 16.1619 28.474 16.3619 28.2397 16.5421C27.9301 16.794 27.5746 17.0088 27.1707 17.1643C27.16 17.1693 27.1357 17.1791 27.1357 17.1791L27.1196 17.1865C24.9358 18.1519 22.1703 18.5889 20.5682 16.5841C20.5601 16.5742 20.5547 16.5668 20.5466 16.557C20.3474 16.3298 20.1804 16.1743 20 16.1669C19.8223 16.1718 19.6553 16.3274 19.4534 16.557C19.4453 16.5668 19.4399 16.5742 19.4318 16.5841C17.8297 18.5889 15.0642 18.1519 12.8804 17.1865L12.8643 17.1791C12.8535 17.1742 12.84 17.1693 12.8293 17.1643C12.4254 17.0088 12.0726 16.7964 11.7603 16.5421C11.526 16.3619 11.3106 16.1619 11.1275 15.9348C10.904 15.6607 10.729 15.3595 10.5809 15.046C10.3897 14.6682 10.2416 14.2683 10.1312 13.8634C10.1285 13.851 10.1231 13.8411 10.1204 13.8288C10.0396 13.6239 10.0019 13.4436 10.0019 13.2807C9.99384 13.1449 10.01 13.0116 10.0746 12.8857C10.0908 12.8659 10.1096 12.8437 10.1258 12.8239C10.2389 12.6289 10.4328 12.4536 10.6939 12.2808C11.079 11.9796 11.5314 11.7006 11.9461 11.4216C12.3177 11.1525 12.6704 10.871 12.9828 10.5599C13.0151 10.5278 13.0447 10.4957 13.0743 10.4636L13.0743 10.4636C13.1147 10.4217 13.1524 10.3772 13.1928 10.3328C13.3409 10.1599 13.4782 9.97725 13.6102 9.78714C13.9898 9.19212 14.2941 8.76253 14.5795 8.47366C14.6065 8.44157 14.6334 8.407 14.663 8.37737C14.8865 8.1206 15.1558 8.01691 15.4439 8.00456C15.8074 7.97247 16.2248 8.1132 16.7876 8.38478C17.2588 8.59217 17.6923 8.81931 18.1016 9.07855C18.1339 9.0983 18.1636 9.11806 18.1959 9.13781C18.4409 9.29582 18.6833 9.46371 18.9202 9.65135C19.106 9.78961 19.3107 9.93527 19.5315 10.0316C19.6769 10.0908 19.833 10.1303 19.9973 10.1402H20.0054H20.0135C20.1804 10.1279 20.3339 10.0883 20.4793 10.0316C20.7001 9.93527 20.9048 9.78961 21.0906 9.65135C21.3275 9.46371 21.5699 9.29582 21.8149 9.13781C21.8445 9.11806 21.8768 9.09832 21.9091 9.07858L21.9091 9.07855C22.3184 8.82178 22.7493 8.59217 23.2232 8.38478C23.786 8.11073 24.2033 7.97247 24.5669 8.00456C24.855 8.01691 25.1242 8.1206 25.3477 8.37737C25.3774 8.40947 25.4016 8.44157 25.4312 8.47366C25.7166 8.76253 26.0209 9.19459 26.4006 9.78714C26.5352 9.97725 26.6726 10.1599 26.818 10.3328C26.8557 10.3772 26.8961 10.4217 26.9365 10.4636C26.9661 10.4957 26.9984 10.5278 27.028 10.5599C27.3377 10.8735 27.6904 11.1525 28.0647 11.4216C28.4821 11.7006 28.9345 11.9796 29.3168 12.2808Z" stroke="#202437" stroke-width="2.5" stroke-miterlimit="10"/>
</svg>
