<svg width="40" height="40" viewBox="0 0 40 40" fill="none" xmlns="http://www.w3.org/2000/svg">
<path d="M34.1281 3.60988L31.8754 1.40511C30.9491 0.479794 29.7484 0 28.5249 0C27.3013 0 26.0435 0.479794 25.1172 1.40511C24.4997 2.02199 24.1224 2.76453 23.9165 3.55276C23.5849 3.48422 23.2647 3.40426 22.9102 3.40426C21.6867 3.40426 20.4288 3.82693 19.5026 4.75225C17.6501 6.60289 17.6501 9.65301 19.5026 11.5036L20.8519 12.8516L12.8473 20.8482L11.498 19.5002C10.5718 18.5749 9.37107 18.0951 8.14751 18.0951C6.92396 18.0951 5.66609 18.5749 4.73985 19.5002C3.53917 20.6997 3.13894 22.4018 3.49342 23.9554C2.72727 24.1497 1.99543 24.5038 1.38937 25.1092C-0.463122 26.9599 -0.463122 30.01 1.38937 31.8606L1.43511 31.9063L3.58491 34.1111L5.88336 36.4073L8.13608 38.612C9.98856 40.4627 13.0417 40.4627 14.8942 38.612C15.5003 38.0066 15.8776 37.2755 16.0949 36.5101C17.6387 36.8414 19.3082 36.4529 20.4974 35.2649C22.3499 33.4143 22.3499 30.3641 20.4974 28.5135L19.1481 27.1655L27.1527 19.1689L28.502 20.5169C30.3545 22.3676 33.4077 22.3676 35.2602 20.5169C36.438 19.3289 36.8382 17.6496 36.5066 16.1188C37.2842 15.9018 38.0046 15.5248 38.6106 14.9193C40.4631 13.0687 40.4631 10.0186 38.6106 8.16793L36.4037 5.91746L34.1052 3.62131L34.1281 3.60988ZM28.5134 3.21005C28.9137 3.21005 29.3025 3.34714 29.6112 3.65558L36.3694 10.407C36.9983 11.0353 36.9983 11.9834 36.3694 12.6117C35.7404 13.24 34.7456 13.24 34.1166 12.6117L27.4042 5.91746C26.7753 5.28916 26.7753 4.2953 27.4042 3.667C27.713 3.35856 28.1018 3.22148 28.502 3.22148L28.5134 3.21005ZM22.9102 6.55719C23.3105 6.55719 23.6993 6.73997 24.008 7.05983L32.9731 16.0046C33.6021 16.6329 33.6021 17.6267 32.9731 18.255C32.3442 18.8833 31.4065 18.8262 30.7662 18.2093H30.7204L21.7553 9.2646C21.1264 8.6363 21.1835 7.69956 21.801 7.05983C22.1098 6.76282 22.51 6.55719 22.8988 6.55719H22.9102ZM23.1046 15.1135L24.9114 16.9185L16.9068 24.915L15.1001 23.1101L23.1046 15.1135ZM8.13608 21.3052C8.53631 21.3052 8.9251 21.4879 9.23385 21.8078H9.27959L18.2447 30.7525C18.8736 31.3808 18.8165 32.3176 18.199 32.9573C17.57 33.5513 16.6209 33.5742 15.992 32.9573L14.8942 31.8606L14.6884 31.7121L8.13608 25.1092L7.03831 24.0126C6.40938 23.3843 6.40938 22.3904 7.03831 21.7621C7.34705 21.4537 7.73585 21.3166 8.13608 21.3166V21.3052ZM4.73985 26.9028C5.14008 26.9028 5.57461 27.0855 5.8948 27.4054L12.6072 34.0997C13.2361 34.728 13.2361 35.7218 12.6072 36.3501C11.9783 36.9784 11.0406 36.9784 10.4002 36.3501L3.64208 29.5987C3.01315 28.9704 3.01315 28.0223 3.64208 27.394C3.95083 27.0855 4.33962 26.8913 4.73985 26.8913V26.9028Z" fill="#202437"/>
</svg>
