<svg width="40" height="40" viewBox="0 0 40 40" fill="none" xmlns="http://www.w3.org/2000/svg">
<path fill-rule="evenodd" clip-rule="evenodd" d="M19.2889 36.6666C25.0778 36.6666 31.2143 36 32.5 27C33.101 22.7927 31.9999 16 29.6047 12.5C27.2827 16.3889 25.5617 18.3333 24.4417 18.3333C24 18.3333 24.4417 13.2589 22.499 9.40948C21.2038 6.84326 17.2992 3.98455 14 2.5C14.4588 6.19743 14.386 9.89916 13.5 13C12.5 16.5 6.24445 19.9792 7.00003 27.5C7.7556 35.0208 13.5 36.6666 19.2889 36.6666Z" stroke="#202437" stroke-width="3" stroke-linejoin="round"/>
<path d="M18.1444 20C14.9737 22.8819 13.6223 25.5493 14.0903 28.0022C14.4931 30.1137 16.0953 31.1401 17.3021 31.471C18.2377 31.7276 19.8576 31.8711 21.305 30.582C22.8382 29.2166 22.2273 27.2754 20.004 24.874C19.0662 23.861 18.4463 22.2363 18.1444 20Z" stroke="#202437" stroke-width="3" stroke-linejoin="round"/>
</svg>
