<svg width="40" height="40" viewBox="0 0 40 40" fill="none" xmlns="http://www.w3.org/2000/svg">
<path fill-rule="evenodd" clip-rule="evenodd" d="M21.9017 5.6764C21.3481 3.79753 18.6885 3.79753 18.1349 5.6764L17.9234 6.3942C17.7455 6.99711 17.435 7.5526 17.0147 8.01997C16.5943 8.48734 16.0747 8.85476 15.4939 9.0953C14.9132 9.33585 14.2859 9.44344 13.6582 9.41018C13.0305 9.37692 12.4181 9.20367 11.8661 8.9031L11.209 8.54308C9.4899 7.60927 7.60878 9.48814 8.54484 11.2095L8.90262 11.8665C9.20318 12.4186 9.37644 13.031 9.40969 13.6587C9.44295 14.2864 9.33536 14.9137 9.09482 15.4944C8.85427 16.0752 8.48685 16.5948 8.01948 17.0152C7.55211 17.4355 6.99662 17.746 6.39371 17.9239L5.67591 18.1354C3.79705 18.689 3.79705 21.3486 5.67591 21.9022L6.39371 22.1137C6.99694 22.2915 7.55273 22.602 8.02033 23.0226C8.48794 23.4431 8.8555 23.9629 9.09608 24.544C9.33666 25.1251 9.44415 25.7526 9.41067 26.3806C9.3772 27.0086 9.2036 27.6211 8.90262 28.1733L8.54259 28.8281C7.60878 30.5472 9.48765 32.4283 11.209 31.4923L11.8661 31.1345C12.4183 30.834 13.0308 30.6608 13.6586 30.6277C14.2865 30.5946 14.9138 30.7023 15.4946 30.9431C16.0754 31.1839 16.595 31.5516 17.0152 32.0192C17.4355 32.4868 17.7458 33.0425 17.9234 33.6457L18.1349 34.3612C18.6885 36.2401 21.3481 36.2401 21.9017 34.3612L22.1132 33.6434C22.291 33.0402 22.6016 32.4844 23.0221 32.0168C23.4426 31.5492 23.9625 31.1816 24.5435 30.941C25.1246 30.7005 25.7521 30.593 26.3801 30.6264C27.0081 30.6599 27.6206 30.8335 28.1728 31.1345L28.8276 31.4945C30.5467 32.4283 32.4278 30.5495 31.4918 28.8281L31.134 28.1733C30.833 27.621 30.6595 27.0083 30.6262 26.3802C30.5929 25.752 30.7006 25.1244 30.9414 24.5433C31.1822 23.9623 31.55 23.4424 32.0178 23.022C32.4857 22.6016 33.0417 22.2912 33.6452 22.1137L34.3607 21.9022C36.2396 21.3486 36.2396 18.689 34.3607 18.1354L33.6429 17.9239C33.04 17.746 32.4845 17.4355 32.0171 17.0152C31.5498 16.5948 31.1824 16.0752 30.9418 15.4944C30.7013 14.9137 30.5937 14.2864 30.6269 13.6587C30.6602 13.031 30.8334 12.4186 31.134 11.8665L31.494 11.2095C32.4278 9.49039 30.549 7.60927 28.8276 8.54533L28.1728 8.9031C27.6205 9.20451 27.0078 9.37845 26.3795 9.41215C25.7513 9.44584 25.1234 9.33845 24.5421 9.09784C23.9607 8.85723 23.4406 8.48952 23.02 8.02168C22.5993 7.55384 22.2887 6.99774 22.1109 6.3942L21.8994 5.6764H21.9017ZM15.9771 5.03961C17.1629 1.01186 22.8737 1.01186 24.0596 5.03961L24.2711 5.75741C24.3539 6.03857 24.4986 6.29763 24.6945 6.51561C24.8905 6.73359 25.1327 6.90496 25.4035 7.01715C25.6743 7.12935 25.9667 7.17953 26.2594 7.16401C26.5521 7.14849 26.8376 7.06768 27.095 6.92748L27.752 6.56746C31.4423 4.56033 35.479 8.59483 33.4674 12.2851L33.1096 12.9421C32.9694 13.1995 32.8886 13.485 32.8731 13.7777C32.8576 14.0704 32.9078 14.3629 33.02 14.6336C33.1322 14.9044 33.3035 15.1466 33.5215 15.3426C33.7395 15.5385 33.9985 15.6832 34.2797 15.766L34.9975 15.9775C39.0252 17.1634 39.0252 22.8742 34.9975 24.0601L34.2797 24.2716C33.9985 24.3544 33.7395 24.4991 33.5215 24.695C33.3035 24.8909 33.1322 25.1332 33.02 25.404C32.9078 25.6747 32.8576 25.9672 32.8731 26.2599C32.8886 26.5526 32.9694 26.8381 33.1096 27.0955L33.4697 27.7525C35.479 31.4428 31.44 35.4795 27.752 33.4679L27.095 33.1101C26.8376 32.9699 26.5521 32.8891 26.2594 32.8736C25.9667 32.8581 25.6743 32.9082 25.4035 33.0204C25.1327 33.1326 24.8905 33.304 24.6945 33.522C24.4986 33.74 24.3539 33.999 24.2711 34.2802L24.0596 34.998C22.8737 39.0257 17.1629 39.0257 15.9771 34.998L15.7655 34.2802C15.6827 33.999 15.5381 33.74 15.3421 33.522C15.1462 33.304 14.9039 33.1326 14.6331 33.0204C14.3624 32.9082 14.0699 32.8581 13.7772 32.8736C13.4845 32.8891 13.199 32.9699 12.9416 33.1101L12.2846 33.4701C8.59435 35.4795 4.55984 31.4405 6.56922 27.7525L6.92699 27.0955C7.06719 26.8381 7.14801 26.5526 7.16352 26.2599C7.17904 25.9672 7.12886 25.6747 7.01667 25.404C6.90447 25.1332 6.7331 24.8909 6.51512 24.695C6.29714 24.4991 6.03808 24.3544 5.75692 24.2716L5.03912 24.0601C1.01137 22.8742 1.01137 17.1634 5.03912 15.9775L5.75692 15.766C6.03808 15.6832 6.29714 15.5385 6.51512 15.3426C6.7331 15.1466 6.90447 14.9044 7.01667 14.6336C7.12886 14.3629 7.17904 14.0704 7.16352 13.7777C7.14801 13.485 7.06719 13.1995 6.92699 12.9421L6.56697 12.2851C4.55984 8.59483 8.5966 4.56033 12.2846 6.56971L12.9416 6.92748C13.199 7.06768 13.4845 7.14849 13.7772 7.16401C14.0699 7.17953 14.3624 7.12935 14.6331 7.01715C14.9039 6.90496 15.1462 6.73359 15.3421 6.51561C15.5381 6.29763 15.6827 6.03857 15.7655 5.75741L15.9771 5.03961V5.03961Z" fill="#202437" stroke="#202437" stroke-width="0.5"/>
<path fill-rule="evenodd" clip-rule="evenodd" d="M19.9998 14.3848C18.5106 14.3848 17.0824 14.9763 16.0294 16.0294C14.9763 17.0824 14.3848 18.5106 14.3848 19.9998C14.3848 21.489 14.9763 22.9172 16.0294 23.9702C17.0824 25.0232 18.5106 25.6148 19.9998 25.6148C21.489 25.6148 22.9172 25.0232 23.9702 23.9702C25.0232 22.9172 25.6148 21.489 25.6148 19.9998C25.6148 18.5106 25.0232 17.0824 23.9702 16.0294C22.9172 14.9763 21.489 14.3848 19.9998 14.3848V14.3848ZM11.8848 19.9998C11.8848 18.9341 12.0947 17.8788 12.5025 16.8943C12.9103 15.9097 13.508 15.0151 14.2616 14.2616C15.0151 13.508 15.9097 12.9103 16.8943 12.5025C17.8788 12.0947 18.9341 11.8848 19.9998 11.8848C21.0654 11.8848 22.1207 12.0947 23.1052 12.5025C24.0898 12.9103 24.9844 13.508 25.7379 14.2616C26.4915 15.0151 27.0892 15.9097 27.497 16.8943C27.9049 17.8788 28.1148 18.9341 28.1148 19.9998C28.1148 22.152 27.2598 24.2161 25.7379 25.7379C24.2161 27.2598 22.152 28.1148 19.9998 28.1148C17.8475 28.1148 15.7835 27.2598 14.2616 25.7379C12.7397 24.2161 11.8848 22.152 11.8848 19.9998V19.9998Z" fill="#202437" stroke="#202437" stroke-width="0.5"/>
</svg>
