<svg width="40" height="40" viewBox="0 0 40 40" fill="none" xmlns="http://www.w3.org/2000/svg">
<path d="M26.3535 15.4602L24.1616 15.5826C23.3067 15.6293 22.449 15.606 21.5968 15.5098L17.9537 15.0958C14.8988 14.7489 12.0153 13.4225 9.67648 11.2916C8.42673 10.1518 7.81138 8.4056 8.05099 6.66818C8.32326 4.67423 9.66831 3.03884 11.4844 2.49663C13.7579 1.8174 16.1648 1.8349 18.4275 2.5491L19.5111 2.89017C21.2428 3.4353 22.9146 4.18741 24.4938 5.12608L30.6772 8.80206C31.0992 9.05276 31.475 9.37634 31.7963 9.76113L31.9215 9.90981C32.4715 10.5745 32.8309 11.3965 32.9534 12.274C33.0433 12.9153 33.0025 13.5712 32.8364 14.195C32.5042 15.4515 31.9406 16.6234 31.1836 17.6466L28.047 21.8735L21.9888 29.482L19.8215 32.1668C19.3015 32.8111 19.2933 33.7614 19.8025 34.4144C20.0666 34.7525 20.4423 34.9712 20.8507 35.0266L23.7586 35.4085C24.1208 35.4551 24.4557 35.6504 24.6898 35.9507C24.9921 36.3384 25.0302 36.8893 24.7824 37.3208C24.6054 37.6269 24.3114 37.828 23.9765 37.8717L19.6527 38L15.0267 37.5773C14.12 37.4578 13.3849 36.7348 13.1943 35.7787C13.1017 35.3152 13.1453 34.8283 13.3223 34.394L15.8191 28.1935C16.1485 27.3744 16.3636 26.5086 16.4535 25.6253L16.6631 23.6138C16.7884 22.4099 17.1396 21.2438 17.695 20.1886C18.5037 18.6552 19.7126 17.4075 21.1747 16.6029L22.8737 15.6672" stroke="#202437" stroke-width="2.5" stroke-linecap="round" stroke-linejoin="round"/>
<path d="M26 19C24.3861 21.4457 23.6617 22.9563 21.5 25L19.5 27" stroke="#202437" stroke-width="2" stroke-linecap="round" stroke-linejoin="round"/>
<path d="M12 6L12.6395 6.48823C14.9342 8.24723 17.5105 9.47992 20.2244 10.117L24 11" stroke="#202437" stroke-width="2" stroke-linecap="round" stroke-linejoin="round"/>
</svg>
