<svg width="40" height="40" viewBox="0 0 40 40" fill="none" xmlns="http://www.w3.org/2000/svg">
<path d="M17.8083 30C19.0167 25.625 23.2417 22.5 28.1083 23.0166C32.7417 23.5083 36.425 27.4166 36.6583 32.0666C36.7167 33.2916 36.55 34.4666 36.1917 35.5583C35.975 36.225 35.325 36.6666 34.6167 36.6666H9.79868C5.59171 36.6666 2.43644 32.8178 3.26149 28.6926L8.33329 3.33331C8.33329 3.33331 16 1.99997 18.3333 3.33331C20.6665 4.66665 21.6666 6.16715 21.6666 9.16664C21.6666 12.1661 14.525 14.275 14.525 14.275L12.4999 11.6666" stroke="#202437" stroke-width="3" stroke-miterlimit="2" stroke-linecap="round" stroke-linejoin="round"/>
<path d="M14.533 14.2749L18.333 28.3332" stroke="#202437" stroke-width="3" stroke-miterlimit="2" stroke-linecap="round" stroke-linejoin="round"/>
</svg>
