<svg width="40" height="40" viewBox="0 0 40 40" fill="none" xmlns="http://www.w3.org/2000/svg">
<g clip-path="url(#clip0_135_770)">
<path fill-rule="evenodd" clip-rule="evenodd" d="M8.75 0C9.08152 0 9.39946 0.131696 9.63388 0.366117C9.8683 0.600537 10 0.918479 10 1.25V2.5H30V1.25C30 0.918479 30.1317 0.600537 30.3661 0.366117C30.6005 0.131696 30.9185 0 31.25 0C31.5815 0 31.8995 0.131696 32.1339 0.366117C32.3683 0.600537 32.5 0.918479 32.5 1.25V2.5H35C36.3261 2.5 37.5979 3.02678 38.5355 3.96447C39.4732 4.90215 40 6.17392 40 7.5V35C40 36.3261 39.4732 37.5979 38.5355 38.5355C37.5979 39.4732 36.3261 40 35 40H5C3.67392 40 2.40215 39.4732 1.46447 38.5355C0.526784 37.5979 0 36.3261 0 35V7.5C0 6.17392 0.526784 4.90215 1.46447 3.96447C2.40215 3.02678 3.67392 2.5 5 2.5H7.5V1.25C7.5 0.918479 7.6317 0.600537 7.86612 0.366117C8.10054 0.131696 8.41848 0 8.75 0V0ZM5 5C4.33696 5 3.70107 5.26339 3.23223 5.73223C2.76339 6.20107 2.5 6.83696 2.5 7.5V35C2.5 35.663 2.76339 36.2989 3.23223 36.7678C3.70107 37.2366 4.33696 37.5 5 37.5H35C35.663 37.5 36.2989 37.2366 36.7678 36.7678C37.2366 36.2989 37.5 35.663 37.5 35V7.5C37.5 6.83696 37.2366 6.20107 36.7678 5.73223C36.2989 5.26339 35.663 5 35 5H5Z" fill="#202437"/>
<path d="M6.25 10C6.25 9.66848 6.3817 9.35054 6.61612 9.11612C6.85054 8.8817 7.16848 8.75 7.5 8.75H32.5C32.8315 8.75 33.1495 8.8817 33.3839 9.11612C33.6183 9.35054 33.75 9.66848 33.75 10V12.5C33.75 12.8315 33.6183 13.1495 33.3839 13.3839C33.1495 13.6183 32.8315 13.75 32.5 13.75H7.5C7.16848 13.75 6.85054 13.6183 6.61612 13.3839C6.3817 13.1495 6.25 12.8315 6.25 12.5V10ZM20 18.75C20 18.4185 20.1317 18.1005 20.3661 17.8661C20.6005 17.6317 20.9185 17.5 21.25 17.5H23.75C24.0815 17.5 24.3995 17.6317 24.6339 17.8661C24.8683 18.1005 25 18.4185 25 18.75V21.25C25 21.5815 24.8683 21.8995 24.6339 22.1339C24.3995 22.3683 24.0815 22.5 23.75 22.5H21.25C20.9185 22.5 20.6005 22.3683 20.3661 22.1339C20.1317 21.8995 20 21.5815 20 21.25V18.75ZM7.5 26.25C7.5 25.9185 7.6317 25.6005 7.86612 25.3661C8.10054 25.1317 8.41848 25 8.75 25H11.25C11.5815 25 11.8995 25.1317 12.1339 25.3661C12.3683 25.6005 12.5 25.9185 12.5 26.25V28.75C12.5 29.0815 12.3683 29.3995 12.1339 29.6339C11.8995 29.8683 11.5815 30 11.25 30H8.75C8.41848 30 8.10054 29.8683 7.86612 29.6339C7.6317 29.3995 7.5 29.0815 7.5 28.75V26.25ZM22.5 26.25C22.5 25.9185 22.6317 25.6005 22.8661 25.3661C23.1005 25.1317 23.4185 25 23.75 25H26.25C26.5815 25 26.8995 25.1317 27.1339 25.3661C27.3683 25.6005 27.5 25.9185 27.5 26.25V28.75C27.5 29.0815 27.3683 29.3995 27.1339 29.6339C26.8995 29.8683 26.5815 30 26.25 30H23.75C23.4185 30 23.1005 29.8683 22.8661 29.6339C22.6317 29.3995 22.5 29.0815 22.5 28.75V26.25Z" fill="#202437"/>
</g>
<defs>
<clipPath id="clip0_135_770">
<rect width="40" height="40" fill="white"/>
</clipPath>
</defs>
</svg>
