<svg width="40" height="40" viewBox="0 0 40 40" fill="none" xmlns="http://www.w3.org/2000/svg">
<g clip-path="url(#clip0_135_761)">
<path fill-rule="evenodd" clip-rule="evenodd" d="M8.75 0C9.08152 0 9.39946 0.131696 9.63388 0.366117C9.8683 0.600537 10 0.918479 10 1.25V2.5H30V1.25C30 0.918479 30.1317 0.600537 30.3661 0.366117C30.6005 0.131696 30.9185 0 31.25 0C31.5815 0 31.8995 0.131696 32.1339 0.366117C32.3683 0.600537 32.5 0.918479 32.5 1.25V2.5H35C36.3261 2.5 37.5979 3.02678 38.5355 3.96447C39.4732 4.90215 40 6.17392 40 7.5V35C40 36.3261 39.4732 37.5979 38.5355 38.5355C37.5979 39.4732 36.3261 40 35 40H5C3.67392 40 2.40215 39.4732 1.46447 38.5355C0.526784 37.5979 0 36.3261 0 35V7.5C0 6.17392 0.526784 4.90215 1.46447 3.96447C2.40215 3.02678 3.67392 2.5 5 2.5H7.5V1.25C7.5 0.918479 7.6317 0.600537 7.86612 0.366117C8.10054 0.131696 8.41848 0 8.75 0V0ZM5 5C4.33696 5 3.70107 5.26339 3.23223 5.73223C2.76339 6.20107 2.5 6.83696 2.5 7.5V35C2.5 35.663 2.76339 36.2989 3.23223 36.7678C3.70107 37.2366 4.33696 37.5 5 37.5H35C35.663 37.5 36.2989 37.2366 36.7678 36.7678C37.2366 36.2989 37.5 35.663 37.5 35V7.5C37.5 6.83696 37.2366 6.20107 36.7678 5.73223C36.2989 5.26339 35.663 5 35 5H5Z" fill="#202437"/>
<path d="M6.25 10C6.25 9.66848 6.3817 9.35054 6.61612 9.11612C6.85054 8.8817 7.16848 8.75 7.5 8.75H32.5C32.8315 8.75 33.1495 8.8817 33.3839 9.11612C33.6183 9.35054 33.75 9.66848 33.75 10V12.5C33.75 12.8315 33.6183 13.1495 33.3839 13.3839C33.1495 13.6183 32.8315 13.75 32.5 13.75H7.5C7.16848 13.75 6.85054 13.6183 6.61612 13.3839C6.3817 13.1495 6.25 12.8315 6.25 12.5V10Z" fill="#202437"/>
<path fill-rule="evenodd" clip-rule="evenodd" d="M27.1349 20.3648C27.2513 20.4809 27.3436 20.6188 27.4066 20.7707C27.4697 20.9226 27.5021 21.0854 27.5021 21.2498C27.5021 21.4142 27.4697 21.577 27.4066 21.7289C27.3436 21.8807 27.2513 22.0187 27.1349 22.1348L19.6349 29.6348C19.5188 29.7512 19.3808 29.8436 19.229 29.9066C19.0771 29.9696 18.9143 30.002 18.7499 30.002C18.5855 30.002 18.4226 29.9696 18.2708 29.9066C18.1189 29.8436 17.981 29.7512 17.8649 29.6348L14.1149 25.8848C13.9987 25.7686 13.9065 25.6306 13.8436 25.4788C13.7807 25.3269 13.7483 25.1642 13.7483 24.9998C13.7483 24.8354 13.7807 24.6727 13.8436 24.5208C13.9065 24.369 13.9987 24.231 14.1149 24.1148C14.3496 23.8801 14.6679 23.7482 14.9999 23.7482C15.1642 23.7482 15.327 23.7806 15.4788 23.8435C15.6307 23.9064 15.7687 23.9986 15.8849 24.1148L18.7499 26.9823L25.3649 20.3648C25.481 20.2484 25.6189 20.156 25.7708 20.093C25.9226 20.03 26.0855 19.9976 26.2499 19.9976C26.4143 19.9976 26.5771 20.03 26.729 20.093C26.8808 20.156 27.0188 20.2484 27.1349 20.3648Z" fill="#202437"/>
</g>
<defs>
<clipPath id="clip0_135_761">
<rect width="40" height="40" fill="white"/>
</clipPath>
</defs>
</svg>
