<svg width="40" height="40" viewBox="0 0 40 40" fill="none" xmlns="http://www.w3.org/2000/svg">
<g clip-path="url(#clip0_135_782)">
<path fill-rule="evenodd" clip-rule="evenodd" d="M8.75 0C9.08152 0 9.39946 0.131696 9.63388 0.366117C9.8683 0.600537 10 0.918479 10 1.25V2.5H30V1.25C30 0.918479 30.1317 0.600537 30.3661 0.366117C30.6005 0.131696 30.9185 0 31.25 0C31.5815 0 31.8995 0.131696 32.1339 0.366117C32.3683 0.600537 32.5 0.918479 32.5 1.25V2.5H35C36.3261 2.5 37.5979 3.02678 38.5355 3.96447C39.4732 4.90215 40 6.17392 40 7.5V35C40 36.3261 39.4732 37.5979 38.5355 38.5355C37.5979 39.4732 36.3261 40 35 40H5C3.67392 40 2.40215 39.4732 1.46447 38.5355C0.526784 37.5979 0 36.3261 0 35V7.5C0 6.17392 0.526784 4.90215 1.46447 3.96447C2.40215 3.02678 3.67392 2.5 5 2.5H7.5V1.25C7.5 0.918479 7.6317 0.600537 7.86612 0.366117C8.10054 0.131696 8.41848 0 8.75 0V0ZM5 5C4.33696 5 3.70107 5.26339 3.23223 5.73223C2.76339 6.20107 2.5 6.83696 2.5 7.5V35C2.5 35.663 2.76339 36.2989 3.23223 36.7678C3.70107 37.2366 4.33696 37.5 5 37.5H35C35.663 37.5 36.2989 37.2366 36.7678 36.7678C37.2366 36.2989 37.5 35.663 37.5 35V7.5C37.5 6.83696 37.2366 6.20107 36.7678 5.73223C36.2989 5.26339 35.663 5 35 5H5Z" fill="#202437"/>
<path d="M6.25 10C6.25 9.66848 6.3817 9.35054 6.61612 9.11612C6.85054 8.8817 7.16848 8.75 7.5 8.75H32.5C32.8315 8.75 33.1495 8.8817 33.3839 9.11612C33.6183 9.35054 33.75 9.66848 33.75 10V12.5C33.75 12.8315 33.6183 13.1495 33.3839 13.3839C33.1495 13.6183 32.8315 13.75 32.5 13.75H7.5C7.16848 13.75 6.85054 13.6183 6.61612 13.3839C6.3817 13.1495 6.25 12.8315 6.25 12.5V10ZM27.5 17.25C27.5 16.9185 27.6317 16.6005 27.8661 16.3661C28.1005 16.1317 28.4185 16 28.75 16H31.25C31.5815 16 31.8995 16.1317 32.1339 16.3661C32.3683 16.6005 32.5 16.9185 32.5 17.25V19.75C32.5 20.0815 32.3683 20.3995 32.1339 20.6339C31.8995 20.8683 31.5815 21 31.25 21H28.75C28.4185 21 28.1005 20.8683 27.8661 20.6339C27.6317 20.3995 27.5 20.0815 27.5 19.75V17.25ZM20 17.25C20 16.9185 20.1317 16.6005 20.3661 16.3661C20.6005 16.1317 20.9185 16 21.25 16H23.75C24.0815 16 24.3995 16.1317 24.6339 16.3661C24.8683 16.6005 25 16.9185 25 17.25V19.75C25 20.0815 24.8683 20.3995 24.6339 20.6339C24.3995 20.8683 24.0815 21 23.75 21H21.25C20.9185 21 20.6005 20.8683 20.3661 20.6339C20.1317 20.3995 20 20.0815 20 19.75V17.25ZM7.5 24.75C7.5 24.4185 7.6317 24.1005 7.86612 23.8661C8.10054 23.6317 8.41848 23.5 8.75 23.5H11.25C11.5815 23.5 11.8995 23.6317 12.1339 23.8661C12.3683 24.1005 12.5 24.4185 12.5 24.75V27.25C12.5 27.5815 12.3683 27.8995 12.1339 28.1339C11.8995 28.3683 11.5815 28.5 11.25 28.5H8.75C8.41848 28.5 8.10054 28.3683 7.86612 28.1339C7.6317 27.8995 7.5 27.5815 7.5 27.25V24.75ZM15 24.75C15 24.4185 15.1317 24.1005 15.3661 23.8661C15.6005 23.6317 15.9185 23.5 16.25 23.5H18.75C19.0815 23.5 19.3995 23.6317 19.6339 23.8661C19.8683 24.1005 20 24.4185 20 24.75V27.25C20 27.5815 19.8683 27.8995 19.6339 28.1339C19.3995 28.3683 19.0815 28.5 18.75 28.5H16.25C15.9185 28.5 15.6005 28.3683 15.3661 28.1339C15.1317 27.8995 15 27.5815 15 27.25V24.75Z" fill="#202437"/>
<path d="M22.5 24.75C22.5 24.4185 22.6317 24.1005 22.8661 23.8661C23.1005 23.6317 23.4185 23.5 23.75 23.5H26.25C26.5815 23.5 26.8995 23.6317 27.1339 23.8661C27.3683 24.1005 27.5 24.4185 27.5 24.75V27.25C27.5 27.5815 27.3683 27.8995 27.1339 28.1339C26.8995 28.3683 26.5815 28.5 26.25 28.5H23.75C23.4185 28.5 23.1005 28.3683 22.8661 28.1339C22.6317 27.8995 22.5 27.5815 22.5 27.25V24.75Z" fill="#202437"/>
<path d="M10 31.75C10 31.4185 10.1317 31.1005 10.3661 30.8661C10.6005 30.6317 10.9185 30.5 11.25 30.5H13.75C14.0815 30.5 14.3995 30.6317 14.6339 30.8661C14.8683 31.1005 15 31.4185 15 31.75V34.25C15 34.5815 14.8683 34.8995 14.6339 35.1339C14.3995 35.3683 14.0815 35.5 13.75 35.5H11.25C10.9185 35.5 10.6005 35.3683 10.3661 35.1339C10.1317 34.8995 10 34.5815 10 34.25V31.75Z" fill="#202437"/>
</g>
<defs>
<clipPath id="clip0_135_782">
<rect width="40" height="40" fill="white"/>
</clipPath>
</defs>
</svg>
