<svg width="900" height="205" viewBox="0 0 900 205" fill="none" xmlns="http://www.w3.org/2000/svg">
<path d="M900 172L878.5 158.7C857 145.3 814 118.7 771.2 120.5C728.3 122.3 685.7 152.7 642.8 163C600 173.3 557 163.7 514.2 165C471.3 166.3 428.7 178.7 385.8 174.7C343 170.7 300 150.3 257.2 155.5C214.3 160.7 171.7 191.3 128.8 201C86 210.7 43 199.3 21.5 193.7L1.46659e-06 188L1.79021e-05 1.28722e-05L21.5 1.47518e-05C43 1.66314e-05 86 2.03906e-05 128.8 2.41323e-05C171.7 2.78827e-05 214.3 3.16069e-05 257.2 3.53574e-05C300 3.90991e-05 343 4.28582e-05 385.8 4.65999e-05C428.7 5.03504e-05 471.3 5.40746e-05 514.2 5.7825e-05C557 6.15667e-05 600 6.53259e-05 642.8 6.90676e-05C685.7 7.2818e-05 728.3 7.65422e-05 771.2 8.02927e-05C814 8.40344e-05 857 8.77936e-05 878.5 8.96731e-05L900 9.15527e-05L900 172Z" fill="#525FDD"/>
</svg>
