<?xml version="1.0" encoding="UTF-8"?>
<svg id="Layer_2" data-name="Layer 2" xmlns="http://www.w3.org/2000/svg" viewBox="0 0 668.33 185.61">
  <defs>
    <style>
      .cls-1 {
        fill: #449fee;
      }

      .cls-2 {
        fill: #202437;
      }

      .cls-3 {
        fill: #e93c79;
      }
    </style>
  </defs>
  <g id="Front_Page" data-name="Front Page">
    <g id="Logo">
      <g>
        <path id="Base" class="cls-2" d="M367.15,127.29h43.58v10.71h-30.15v15.24h26.61v10.71h-26.61v21.01h-13.43v-57.67ZM430.44,122.06c-1.33-1.29-3.04-1.94-5.13-1.94s-3.86.69-5.17,2.06c-1.31,1.37-1.97,3.08-1.97,5.11s.65,3.74,1.97,5.11c1.31,1.37,3.03,2.06,5.17,2.06s3.86-.7,5.17-2.1c1.31-1.4,1.96-3.17,1.96-5.31s-.67-3.69-2-4.98ZM418.88,184.95h12.85v-44.32h-12.85v44.32ZM463.53,175.4c-1.65,0-2.95-.52-3.91-1.56-.96-1.04-1.44-2.5-1.44-4.37v-18.95h10.96v-9.89h-10.96v-9.8h-12.93v9.8h-6.84v9.89h6.84v19.19c0,5.27,1.45,9.24,4.37,11.9,2.91,2.66,6.97,4,12.19,4,1.98,0,3.88-.23,5.73-.7,1.84-.47,3.39-1.17,4.65-2.1l-3.38-9.06c-1.43,1.1-3.19,1.65-5.27,1.65ZM515.89,142.07c-2.78-1.4-5.92-2.1-9.43-2.1-3.79,0-7.17.8-10.13,2.39-1.75.94-3.26,2.13-4.53,3.55v-5.28h-12.27v44.32h12.85v-21.91c0-2.8.45-5.05,1.36-6.75.91-1.7,2.17-2.99,3.79-3.87,1.62-.88,3.45-1.32,5.48-1.32,2.85,0,5.07.85,6.63,2.55,1.56,1.7,2.35,4.34,2.35,7.91v23.4h12.85v-25.37c0-4.5-.8-8.2-2.39-11.08-1.59-2.88-3.78-5.03-6.55-6.43ZM577.14,150.68c2.03,3.41,3.05,7.5,3.05,12.27,0,.49-.03,1.06-.08,1.69-.06.63-.11,1.22-.16,1.77h-33.51c.27,1.19.69,2.3,1.3,3.29,1.1,1.81,2.61,3.2,4.53,4.16,1.92.96,4.23,1.44,6.92,1.44,2.31,0,4.35-.36,6.14-1.07,1.78-.71,3.42-1.78,4.9-3.21l6.84,7.41c-2.03,2.31-4.59,4.08-7.66,5.31-3.08,1.24-6.62,1.85-10.63,1.85-5.05,0-9.47-.99-13.26-2.97-3.79-1.98-6.73-4.68-8.81-8.11-2.09-3.43-3.13-7.35-3.13-11.74s1-8.32,3.01-11.78c2-3.46,4.81-6.16,8.4-8.11,3.6-1.95,7.65-2.92,12.15-2.92s8.25.93,11.74,2.8c3.49,1.87,6.25,4.5,8.28,7.91ZM547.48,155.17c-.6,1.11-.99,2.37-1.2,3.75h21.74c-.19-1.39-.57-2.66-1.18-3.79-.93-1.7-2.22-3.03-3.87-4-1.65-.96-3.57-1.44-5.77-1.44s-4.13.48-5.81,1.44c-1.67.96-2.98,2.31-3.91,4.04ZM619.27,161.68c-1.62-.91-3.37-1.61-5.23-2.1-1.87-.49-3.76-.88-5.68-1.15-1.92-.27-3.68-.55-5.27-.82-1.59-.27-2.88-.7-3.87-1.28-.99-.58-1.48-1.41-1.48-2.51,0-1.21.66-2.2,1.98-2.97,1.32-.77,3.46-1.15,6.42-1.15,1.98,0,4.05.25,6.22.74,2.17.49,4.3,1.35,6.38,2.55l4.37-9.14c-2.14-1.21-4.77-2.15-7.87-2.84-3.1-.69-6.19-1.03-9.27-1.03-4.28,0-7.94.6-10.96,1.81-3.02,1.21-5.35,2.9-7,5.07-1.65,2.17-2.47,4.65-2.47,7.46,0,2.53.48,4.59,1.44,6.18.96,1.59,2.25,2.84,3.87,3.75s3.38,1.61,5.27,2.1c1.89.49,3.8.88,5.73,1.15,1.92.28,3.67.55,5.23.82,1.56.28,2.83.67,3.79,1.19.96.52,1.44,1.31,1.44,2.35,0,1.26-.62,2.25-1.85,2.97-1.24.71-3.34,1.07-6.3,1.07-2.69,0-5.42-.4-8.2-1.19-2.77-.8-5.2-1.8-7.29-3.01l-4.2,9.14c2.09,1.37,4.86,2.51,8.32,3.42,3.46.91,7.09,1.36,10.87,1.36,4.45,0,8.22-.6,11.33-1.81,3.1-1.21,5.48-2.87,7.13-4.98,1.65-2.11,2.47-4.52,2.47-7.21,0-2.53-.48-4.59-1.44-6.18-.96-1.59-2.25-2.84-3.87-3.75ZM666.89,165.43c-.96-1.59-2.25-2.84-3.87-3.75-1.62-.91-3.37-1.61-5.23-2.1-1.87-.49-3.76-.88-5.68-1.15-1.92-.27-3.68-.55-5.27-.82-1.59-.27-2.88-.7-3.87-1.28-.99-.58-1.48-1.41-1.48-2.51,0-1.21.66-2.2,1.98-2.97,1.32-.77,3.46-1.15,6.42-1.15,1.98,0,4.05.25,6.22.74,2.17.49,4.3,1.35,6.38,2.55l4.37-9.14c-2.14-1.21-4.77-2.15-7.87-2.84-3.11-.69-6.19-1.03-9.27-1.03-4.28,0-7.94.6-10.96,1.81-3.02,1.21-5.35,2.9-7,5.07-1.65,2.17-2.47,4.65-2.47,7.46,0,2.53.48,4.59,1.44,6.18.96,1.59,2.25,2.84,3.87,3.75,1.62.91,3.38,1.61,5.27,2.1,1.89.49,3.8.88,5.73,1.15,1.92.28,3.67.55,5.23.82,1.56.28,2.83.67,3.79,1.19.96.52,1.44,1.31,1.44,2.35,0,1.26-.62,2.25-1.85,2.97-1.24.71-3.34,1.07-6.3,1.07-2.69,0-5.42-.4-8.2-1.19-2.77-.8-5.2-1.8-7.29-3.01l-4.2,9.14c2.09,1.37,4.86,2.51,8.32,3.42,3.46.91,7.09,1.36,10.87,1.36,4.45,0,8.22-.6,11.33-1.81,3.1-1.21,5.48-2.87,7.13-4.98,1.65-2.11,2.47-4.52,2.47-7.21,0-2.53-.48-4.59-1.44-6.18ZM414.1,63.8c2.03,3.13,3.05,6.84,3.05,11.12s-1.02,8.06-3.05,11.16c-2.03,3.1-4.91,5.51-8.65,7.21-3.74,1.7-8.18,2.55-13.35,2.55h-11.53v15.9h-13.43v-57.67h24.96c5.16,0,9.61.84,13.35,2.51,3.74,1.68,6.62,4.08,8.65,7.21ZM403.72,74.92c0-3.18-1.04-5.64-3.13-7.37-2.09-1.73-5.16-2.59-9.23-2.59h-10.79v20.02h10.79c4.06,0,7.14-.88,9.23-2.64,2.09-1.76,3.13-4.23,3.13-7.41ZM458.43,89.42c0,2.64-.45,4.83-1.36,6.59-.91,1.76-2.13,3.08-3.67,3.95-1.54.88-3.29,1.32-5.27,1.32-2.86,0-5.07-.86-6.63-2.59-1.57-1.73-2.35-4.46-2.35-8.2v-23.07h-12.85v25.04c0,4.5.79,8.24,2.39,11.2,1.59,2.97,3.82,5.16,6.67,6.59,2.86,1.43,6.15,2.14,9.89,2.14,3.41,0,6.54-.78,9.39-2.35,1.69-.92,3.14-2.12,4.37-3.57v5.26h12.19v-44.32h-12.77v22ZM483.14,111.75h12.85v-61.13h-12.85v61.13ZM538.46,88.48c-1.62-.91-3.37-1.61-5.23-2.1-1.87-.49-3.76-.88-5.69-1.15-1.92-.27-3.68-.55-5.27-.82-1.59-.27-2.88-.7-3.87-1.28-.99-.58-1.48-1.41-1.48-2.51,0-1.21.66-2.2,1.98-2.97,1.32-.77,3.46-1.15,6.42-1.15,1.98,0,4.05.25,6.22.74,2.17.49,4.3,1.35,6.38,2.55l4.37-9.14c-2.14-1.21-4.77-2.16-7.87-2.84-3.1-.69-6.19-1.03-9.27-1.03-4.28,0-7.94.61-10.96,1.81-3.02,1.21-5.35,2.9-7,5.07-1.65,2.17-2.47,4.65-2.47,7.46,0,2.53.48,4.59,1.44,6.18.96,1.59,2.25,2.84,3.87,3.75,1.62.91,3.38,1.61,5.27,2.1,1.89.49,3.8.88,5.73,1.15,1.92.28,3.67.55,5.23.82,1.57.28,2.83.67,3.79,1.19.96.52,1.44,1.31,1.44,2.35,0,1.26-.62,2.25-1.85,2.97-1.24.71-3.34,1.07-6.3,1.07-2.69,0-5.42-.4-8.2-1.19-2.77-.8-5.2-1.8-7.29-3.01l-4.2,9.14c2.09,1.37,4.86,2.51,8.32,3.42s7.09,1.36,10.87,1.36c4.45,0,8.22-.6,11.33-1.81,3.1-1.21,5.48-2.87,7.13-4.98,1.65-2.11,2.47-4.52,2.47-7.21,0-2.53-.48-4.59-1.44-6.18-.96-1.59-2.25-2.84-3.87-3.75ZM595.1,89.75c0,.49-.03,1.06-.08,1.69-.06.63-.11,1.22-.16,1.77h-33.51c.27,1.19.69,2.3,1.3,3.3,1.1,1.81,2.61,3.2,4.53,4.16,1.92.96,4.23,1.44,6.92,1.44,2.31,0,4.35-.36,6.14-1.07,1.78-.71,3.42-1.78,4.9-3.21l6.84,7.41c-2.03,2.31-4.59,4.08-7.66,5.31-3.08,1.24-6.62,1.85-10.63,1.85-5.05,0-9.47-.99-13.26-2.97-3.79-1.98-6.73-4.68-8.81-8.11-2.09-3.43-3.13-7.35-3.13-11.74s1-8.32,3.01-11.78c2-3.46,4.81-6.16,8.4-8.11,3.6-1.95,7.65-2.92,12.15-2.92s8.25.93,11.74,2.8c3.49,1.87,6.25,4.5,8.28,7.91,2.03,3.41,3.05,7.5,3.05,12.27ZM562.39,81.97c-.6,1.11-.99,2.37-1.2,3.75h21.75c-.19-1.39-.57-2.66-1.18-3.79-.93-1.7-2.22-3.03-3.87-3.99-1.65-.96-3.57-1.44-5.77-1.44s-4.13.48-5.81,1.44c-1.67.96-2.98,2.31-3.91,4.04Z"/>
        <g id="Version_3.1.4" data-name="Version 3.1.4">
          <path class="cls-3" d="M122.25,142.48c.06-.19.12-.38.18-.57.06-.19.12-.37.18-.57.06-.19.12-.38.18-.57.06-.19.12-.38.18-.57.06-.19.12-.37.18-.57.06-.19.12-.38.18-.57.06-.19.12-.37.18-.57.06-.19.12-.38.18-.57.06-.19.12-.38.18-.57.06-.19.12-.38.18-.57.06-.19.12-.37.18-.57.06-.19.12-.37.18-.57.06-.19.12-.38.18-.57.06-.19.12-.38.18-.57.06-.19.12-.37.18-.57.06-.19.12-.38.18-.57.06-.19.12-.38.18-.57.06-.19.12-.38.18-.57.06-.19.12-.38.18-.57.06-.19.12-.38.18-.57.06-.19.12-.37.18-.57.06-.19.12-.38.18-.57.06-.19.12-.37.17-.57.06-.19.12-.38.18-.57.06-.19.12-.38.18-.57.06-.19.12-.38.18-.57.06-.19.12-.38.18-.57.06-.19.12-.38.18-.57.06-.19.12-.37.17-.57.06-.19.12-.37.18-.57.06-.19.12-.38.18-.57.06-.19.12-.37.17-.57.06-.19.12-.38.18-.57.06-.19.12-.38.18-.57.06-.19.12-.37.18-.57.06-.19.12-.38.18-.57.06-.19.12-.38.18-.57.06-.19.12-.38.18-.57.06-.19.12-.37.18-.57.06-.19.12-.38.18-.57.06-.19.12-.38.18-.57.06-.19.12-.38.18-.57.06-.19.12-.37.18-.57.06-.19.12-.38.18-.57.06-.19.12-.38.18-.57.06-.19.12-.38.18-.57.06-.19.12-.38.18-.57.06-.19.12-.37.17-.57.06-.19.12-.38.18-.57.06-.19.12-.38.18-.57.06-.19.12-.38.18-.57.06-.19.12-.38.18-.57.06-.19.12-.38.18-.57.06-.19.12-.37.17-.57.06-.19.12-.38.18-.57.06-.19.12-.38.18-.57.06-.19.12-.37.18-.57.06-.19.12-.37.18-.57.06-.19.12-.38.18-.57.06-.19.12-.37.17-.57.06-.19.12-.38.18-.57.06-.19.12-.37.17-.57.06-.19.12-.38.18-.57.06-.19.12-.38.18-.57.06-.19.12-.38.18-.57.06-.19.12-.37.17-.57.06-.19.12-.38.18-.57.06-.19.12-.38.18-.57.06-.19.12-.37.18-.57.06-.19.12-.38.18-.57.06-.19.12-.38.18-.57.06-.19.12-.37.17-.57.06-.19.12-.37.18-.57.06-.19.12-.38.18-.57.06-.19.12-.38.18-.57.06-.19.12-.38.18-.57.06-.19.12-.38.18-.57.06-.19.12-.37.17-.56.06-.19.12-.38.18-.57.06-.19.12-.38.18-.57.06-.19.12-.38.18-.57.06-.19.12-.38.18-.57.06-.19.12-.38.18-.57.06-.19.12-.37.17-.57.06-.19.12-.38.18-.57.06-.19.12-.38.18-.57.06-.19.12-.37.17-.57.06-.19.12-.38.18-.57.06-.19.12-.38.18-.57.06-.19.12-.37.17-.57.06-.19.12-.38.18-.57.06-.19.12-.38.18-.57.06-.19.12-.38.18-.57.06-.19.12-.38.18-.57.06-.19.12-.38.18-.57.06-.19.12-.37.17-.57.06-.19.12-.38.18-.57.06-.19.12-.38.18-.57.06-.19.12-.38.18-.57.06-.19.12-.38.18-.57.06-.19.12-.38.18-.57.06-.19.12-.38.17-.57.06-.19.12-.38.18-.57.06-.19.12-.38.18-.57.06-.19.12-.38.18-.57.06-.19.12-.38.18-.57.06-.19.12-.38.18-.57.06-.19.12-.37.17-.56.06-.19.12-.38.18-.57.06-.19.12-.38.18-.57.06-.19.12-.38.18-.57.06-.19.12-.37.17-.57.06-.19.12-.38.18-.57.06-.19.12-.37.17-.57.06-.19.12-.38.18-.57.06-.19.12-.38.18-.57.06-.19.12-.37.17-.57.06-.19.12-.38.18-.57.06-.19.12-.38.18-.57.06-.19.12-.37.17-.57.06-.19.12-.38.18-.57.06-.19.12-.38.18-.57.06-.19.12-.38.18-.57.06-.19.12-.38.18-.57.06-.19.12-.38.18-.57.06-.19.12-.37.17-.57.06-.19.12-.38.18-.57.06-.19.12-.38.18-.57.06-.19.12-.38.18-.57.06-.19.12-.38.18-.57.06-.19.12-.38.18-.57.06-.19.12-.37.17-.57.06-.19.12-.38.18-.57.06-.19.12-.38.18-.57.06-.19.12-.38.18-.57.06-.19.12-.38.18-.57.06-.19.12-.38.18-.57.06-.19.12-.37.17-.57.06-.19.12-.38.18-.57.06-.18.12-.36.17-.54.01-.04.03-.08.04-.12.04-.12.08-.24.12-.36.06-.2.13-.41.19-.61.06-.19.12-.38.18-.57.06-.19.12-.37.17-.56.06-.19.12-.38.18-.57.06-.19.12-.38.18-.57.06-.19.12-.38.18-.57.06-.19.12-.38.18-.57.06-.19.12-.38.18-.57.06-.19.12-.37.17-.56.06-.19.12-.38.18-.57.06-.19.12-.38.18-.57.06-.19.12-.38.18-.57.06-.19.12-.38.18-.57.06-.19.12-.38.18-.57.06-.19.12-.38.18-.57.06-.19.12-.38.18-.57.06-.19.12-.38.17-.57.06-.19.12-.38.18-.57.06-.19.12-.38.18-.57.06-.19.12-.38.18-.57.06-.19.12-.37.17-.57.06-.19.12-.38.18-.57.06-.19.12-.38.18-.57.06-.19.12-.38.18-.57.06-.19.12-.38.18-.57.06-.19.12-.38.18-.57.06-.19.12-.38.17-.57.06-.19.12-.37.17-.57.06-.19.12-.38.18-.57.06-.19.12-.38.18-.57.06-.19.12-.38.17-.57.06-.19.12-.38.18-.57.06-.19.12-.37.17-.56.06-.19.12-.38.18-.57.06-.19.12-.38.18-.57.06-.19.12-.38.18-.57.06-.19.12-.38.18-.57.06-.19.12-.38.18-.57.06-.19.12-.37.17-.56.36-1.15.65-2.32.87-3.53,2.98-16.91-9.65-33.27-28.2-36.54-18.56-3.27-36.02,7.78-39,24.69-.21,1.21-.34,2.42-.39,3.61-.01.2-.02.39-.03.59-.01.2-.02.4-.03.59-.01.2-.02.39-.03.59-.01.2-.02.4-.03.59-.01.2-.02.39-.03.59-.01.2-.02.4-.03.59-.01.2-.02.39-.03.59-.01.2-.02.4-.03.59-.01.2-.02.39-.03.59-.01.2-.02.39-.03.59-.01.2-.02.39-.03.59-.01.2-.02.4-.03.59-.01.2-.02.39-.03.59-.01.2-.02.39-.03.59-.01.2-.02.4-.03.59-.01.2-.02.39-.03.59-.01.2-.02.39-.03.59-.01.2-.02.4-.03.59-.01.2-.02.39-.03.59-.01.2-.02.4-.03.59-.01.2-.02.39-.03.59-.01.2-.02.4-.03.59-.01.2-.02.39-.03.59-.01.2-.02.4-.03.59-.01.2-.02.39-.03.59-.01.2-.02.4-.03.59-.01.2-.02.39-.03.59-.01.2-.02.39-.03.59-.01.2-.02.4-.03.59-.01.2-.02.39-.03.59-.01.2-.02.4-.03.59-.01.2-.02.4-.03.59-.01.2-.02.39-.03.59-.01.2-.02.4-.03.59-.01.2-.02.39-.03.59-.01.2-.02.4-.03.59-.01.2-.02.39-.03.59-.01.2-.02.4-.03.59-.01.2-.02.39-.03.59-.01.2-.02.4-.03.59-.01.2-.02.39-.03.59-.01.2-.02.39-.03.59-.01.2-.02.4-.03.59-.01.2-.02.39-.03.59-.01.2-.02.4-.03.59-.01.2-.02.39-.03.59-.01.2-.02.4-.03.59-.01.2-.02.39-.03.59-.01.2-.02.39-.03.59-.01.2-.02.4-.03.59-.01.2-.02.39-.03.59-.01.2-.02.4-.03.59-.01.2-.02.39-.03.59-.01.2-.02.4-.03.59-.01.2-.02.4-.03.59-.01.2-.02.39-.03.59-.01.2-.02.4-.03.59-.01.2-.02.39-.03.59-.01.2-.02.4-.03.59-.01.2-.02.39-.03.59-.01.2-.02.4-.03.59-.01.2-.02.39-.03.59-.01.2-.02.4-.03.59-.01.2-.02.39-.03.59-.01.2-.02.39-.03.59-.01.2-.02.4-.03.59-.01.2-.02.39-.03.59-.01.2-.02.39-.03.59-.01.21-.02.43-.03.64,0,.13,0,.25-.01.37,0,.04,0,.08,0,.12-.01.19-.02.37-.03.56-.01.2-.02.39-.03.59-.01.2-.02.39-.03.59-.01.2-.02.39-.03.59-.01.2-.02.4-.03.59-.01.2-.02.39-.03.59-.01.2-.02.39-.03.59-.01.2-.02.39-.03.59-.01.2-.02.4-.03.59-.01.2-.02.39-.03.59-.01.2-.02.39-.03.59-.01.2-.02.39-.03.59-.01.2-.02.39-.03.59-.01.2-.02.39-.03.59-.01.2-.02.39-.03.59-.01.2-.02.4-.03.59-.01.2-.02.39-.03.59-.01.2-.02.39-.03.59-.01.2-.02.4-.03.59-.01.2-.02.39-.03.59-.01.2-.02.4-.03.59-.01.2-.02.39-.03.59-.01.2-.02.4-.03.59-.01.2-.02.39-.03.59-.01.2-.02.4-.03.59-.01.2-.02.39-.03.59-.01.2-.02.39-.03.59-.01.2-.02.39-.03.59-.01.2-.02.39-.03.59-.01.2-.02.4-.03.59-.01.2-.02.39-.03.59-.01.2-.02.39-.03.59-.01.2-.02.39-.03.59-.01.2-.02.39-.03.59-.01.2-.02.4-.03.59-.01.2-.02.39-.03.59-.01.2-.02.4-.03.59-.01.2-.02.39-.03.59-.01.2-.02.4-.03.59-.01.2-.02.39-.03.59-.01.2-.02.39-.03.59-.01.2-.02.39-.03.59-.01.2-.02.39-.03.59-.01.2-.02.4-.03.59-.01.2-.02.39-.03.59-.01.2-.02.39-.03.59-.01.2-.02.39-.03.59-.01.2-.02.4-.03.59-.01.2-.02.39-.03.59-.01.2-.02.39-.03.59-.01.2-.02.39-.03.59-.01.2-.02.39-.03.59-.01.2-.02.4-.03.59-.01.2-.02.39-.03.59-.01.2-.02.4-.03.59-.01.2-.02.39-.03.59-.01.2-.02.39-.03.59-.01.2-.02.4-.03.59-.01.2-.02.39-.03.59-.01.2-.02.4-.03.59-.01.2-.02.39-.03.59-.01.2-.02.39-.03.59-.01.2-.02.39-.03.59-.01.2-.02.4-.03.59-.01.2-.02.39-.03.59-.01.2-.02.39-.03.59-.01.2-.02.4-.03.59-.01.2-.02.39-.03.59-.01.2-.02.4-.03.59-.01.2-.02.39-.03.59-.01.2-.02.39-.03.59-.01.2-.02.39-.03.59-.01.2-.02.39-.03.59-.01.2-.02.39-.03.59-.01.2-.02.39-.03.59-.01.2-.02.39-.03.59-.01.2-.02.39-.03.59-.01.2-.02.4-.03.59-.01.2-.02.39-.03.59-.01.2-.02.4-.03.59-.01.2-.02.39-.03.59-.01.2-.02.39-.03.59-.01.2-.02.4-.03.59-.01.2-.02.39-.03.59-.01.2-.02.39-.03.59-.01.2-.02.39-.03.59-.01.2-.02.39-.03.59-.01.2-.02.39-.03.59-.01.2-.02.4-.03.59-.01.2-.02.39-.03.59-.01.2-.02.39-.03.59-.01.2-.02.4-.03.59-.01.2-.02.39-.03.59-.01.2-.02.39-.03.59-.01.2-.02.39-.03.59-.01.2-.02.39-.03.59-.01.2-.02.39-.03.59-.01.2-.02.39-.03.59-.01.2-.02.4-.03.59-.01.2-.02.39-.03.59-.01.2-.02.4-.03.59-.01.2-.02.39-.03.59-.02.2-.02.4-.03.59-.01.2-.02.39-.03.59-.02.2-.02.4-.03.59-.01.2-.02.39-.03.59-.01.2-.02.39-.03.59-.02.2-.02.4-.03.59-.01.2-.02.39-.03.59-.02.2-.02.4-.03.59-.02.2-.02.39-.03.59-.02.2-.02.4-.03.59-.73,9.53,6.61,18.39,17.12,20.25,10.52,1.85,20.44-3.97,23.02-13.17.06-.19.12-.37.17-.57.06-.19.12-.38.18-.57Z"/>
          <path class="cls-1" d="M285.92,68.34c-12.92-10.84-31.49-9.99-41.47,1.9-.7.83-1.32,1.7-1.9,2.6-.1.15-.19.3-.29.45-.1.15-.19.3-.29.45-.1.15-.19.3-.29.45-.1.15-.19.3-.29.45-.1.15-.19.3-.29.45-.1.15-.19.3-.29.45-.1.15-.19.3-.29.45-.1.15-.19.3-.29.45-.1.15-.19.3-.29.45-.1.15-.19.3-.29.45-.1.15-.19.3-.29.45-.1.15-.19.3-.29.45-.1.15-.19.3-.29.45-.1.15-.19.3-.29.45-.1.15-.19.3-.29.45-.1.15-.19.3-.29.45-.1.15-.19.3-.29.45-.1.15-.19.3-.29.45-.1.15-.19.3-.29.45-.1.15-.19.3-.29.45-.1.15-.19.3-.29.45-.1.15-.19.3-.29.45-.1.15-.19.3-.29.45-.1.15-.19.3-.29.45-.1.15-.19.3-.29.45-.1.15-.19.3-.29.45-.1.15-.19.3-.29.45-.1.15-.19.3-.29.45-.1.15-.19.3-.29.45-.1.15-.19.3-.29.45-.1.15-.19.3-.29.45-.1.15-.19.3-.29.45-.1.15-.19.3-.29.45-.1.15-.19.3-.29.45-.1.15-.19.3-.29.45-.1.15-.19.3-.29.45-.1.15-.19.3-.29.45-.1.15-.19.3-.29.45-.1.15-.19.3-.29.45-.1.15-.19.3-.29.45-.1.15-.19.3-.29.45-.1.15-.19.3-.29.45-.1.15-.19.3-.29.45-.1.15-.19.3-.29.45-.1.15-.19.3-.29.45-.1.15-.19.3-.29.45-.1.15-.19.3-.29.45-.1.15-.19.3-.29.45-.1.15-.19.3-.29.45-.1.15-.19.3-.29.45-.1.15-.19.3-.29.45-.1.15-.19.3-.29.45-.1.15-.19.3-.29.45-.1.15-.19.3-.29.45-.1.15-.19.3-.29.45-.1.15-.19.3-.29.45-.1.15-.19.3-.29.45-.1.15-.19.3-.29.45-.1.15-.19.3-.29.45-.1.15-.19.3-.29.45-.1.15-.19.3-.29.45-.1.15-.19.3-.29.45-.1.15-.19.3-.29.45-.1.15-.19.3-.29.45-.1.15-.19.3-.29.45-.1.15-.19.3-.29.45-.1.15-.19.3-.29.45-.1.15-.19.3-.29.45-.1.15-.19.3-.29.45-.1.15-.19.3-.29.45-.1.15-.19.3-.29.45-.1.15-.19.3-.29.45-.1.15-.19.3-.29.45-.1.15-.19.3-.29.45-.1.15-.19.3-.29.45-.1.15-.19.3-.29.45-.1.15-.19.3-.29.45-.1.15-.19.3-.29.45-.1.15-.19.3-.29.45-.1.15-.19.3-.29.45-.1.15-.19.3-.29.45-.1.15-.19.3-.29.45-.1.15-.19.3-.29.45-.1.15-.19.3-.29.45-.1.15-.19.3-.29.45-.1.15-.19.3-.29.45-.1.15-.19.3-.29.45-.1.15-.19.3-.29.45-.1.15-.19.3-.29.45-.1.15-.19.3-.29.45-.1.15-.19.3-.29.45-.1.15-.19.3-.29.45-.1.15-.19.3-.29.45-.1.15-.19.3-.29.45-.1.15-.19.3-.29.45-.1.15-.19.3-.29.45-.1.15-.19.3-.29.45-.1.15-.19.3-.29.45-.1.15-.19.3-.29.45-.1.15-.19.3-.29.45-.1.15-.19.3-.29.45-.1.15-.19.3-.29.45-.1.15-.19.3-.29.45-.1.15-.19.3-.29.45-.1.15-.19.3-.29.45-.1.15-.19.3-.29.45-.1.15-.19.3-.29.45-.1.15-.19.3-.29.45-.1.15-.19.3-.29.45-.1.15-.19.3-.29.45-.1.15-.19.3-.29.45-.1.15-.19.3-.29.45-.1.15-.19.3-.29.45-.1.15-.19.3-.29.45-.1.15-.19.3-.29.45-.1.15-.19.3-.29.45-.1.15-.19.3-.29.45-.1.15-.19.3-.29.45-.1.15-.19.3-.29.45-.1.15-.19.3-.29.45-.1.15-.19.3-.29.45-.1.15-.19.3-.29.45-.1.15-.19.3-.29.45-.1.15-.19.3-.29.45-.1.15-.19.3-.29.45-.1.15-.19.3-.29.45-.1.15-.19.3-.29.45-.1.15-.2.3-.29.45-.1.15-.19.3-.29.45-.1.15-.19.3-.29.45-.1.15-.19.3-.29.45-.1.15-.19.3-.29.45-.1.15-.19.3-.29.45-.1.15-.19.3-.29.45-.1.15-.19.3-.29.45-.1.15-.19.3-.29.45-.1.15-.19.3-.29.45-.1.15-.19.3-.29.45-.1.15-.19.3-.29.45-.1.15-.19.3-.29.45-.1.15-.19.3-.29.45-.1.15-.19.3-.29.45-.1.15-.19.3-.29.45-.1.15-.19.3-.29.45-.1.15-.19.3-.29.45-.1.15-.19.3-.29.45-.1.15-.19.3-.29.45-.1.15-.19.3-.29.45-.1.15-.19.3-.29.45-.1.15-.19.3-.29.45-.1.15-.2.3-.29.45-.1.15-.19.3-.29.45-.1.15-.19.3-.29.45-.1.15-.19.3-.29.45-.1.15-.19.3-.29.45-.1.15-.19.3-.29.45-.1.15-.19.3-.29.45-.1.15-.19.3-.29.45-.1.15-.19.3-.29.45-.1.15-.19.3-.29.45-.1.15-.2.3-.29.45-.1.15-.19.3-.29.45-.1.15-.2.3-.29.45-.1.15-.19.3-.29.45-.1.15-.19.3-.29.45-.1.15-.19.3-.29.45-.1.15-.2.3-.29.45-.1.15-.19.3-.29.45-.1.15-.19.3-.29.45-.1.15-.19.3-.29.45-.1.15-.2.3-.29.45-.1.15-.19.3-.29.45-.1.15-.2.3-.29.45-.1.15-.19.3-.29.45-.1.15-.19.3-.29.45-.1.15-.19.3-.29.45-.1.15-.2.3-.29.45-.1.15-.19.3-.29.45-.1.15-.2.3-.29.45-.1.15-.2.3-.29.45-.1.15-.19.3-.29.45-.1.15-.19.3-.29.45-4.88,7.13-3.21,17.33,4.12,23.48,7.32,6.15,17.66,6.02,23.83-.02.13-.12.26-.24.39-.37.13-.12.26-.24.39-.36.13-.12.26-.24.39-.36.13-.12.26-.24.39-.36.13-.12.26-.24.39-.37.13-.12.26-.24.39-.36.13-.12.26-.24.39-.37.13-.12.26-.24.39-.36.13-.12.26-.24.39-.36.13-.12.26-.24.39-.36.13-.12.26-.24.39-.37.13-.12.26-.24.39-.36.13-.12.26-.24.39-.37.13-.12.26-.24.39-.37.13-.12.26-.24.39-.36.13-.12.26-.24.39-.37.13-.12.26-.24.39-.36.13-.12.26-.24.39-.36.13-.12.26-.24.39-.36.13-.12.26-.24.39-.36.13-.12.26-.24.39-.36.13-.12.26-.24.39-.36.13-.12.26-.24.39-.36.13-.12.26-.24.39-.36.13-.12.26-.24.39-.37.13-.12.26-.24.39-.36.13-.12.26-.24.39-.36.13-.12.26-.24.39-.36.13-.12.26-.24.39-.36.13-.12.26-.24.39-.36.13-.12.26-.24.39-.36.13-.12.26-.24.39-.36.13-.12.26-.24.39-.37.13-.12.26-.24.39-.36.13-.12.26-.24.39-.36.13-.12.26-.24.39-.37.13-.12.26-.24.39-.36.13-.12.26-.24.39-.36.13-.12.26-.24.39-.37.13-.12.26-.24.39-.36.13-.12.26-.24.39-.36.13-.12.26-.24.39-.36.13-.12.26-.24.39-.36.13-.12.26-.24.39-.36.13-.12.26-.24.39-.36.13-.12.26-.24.39-.36.13-.12.26-.24.39-.36.13-.12.26-.24.39-.36.13-.12.26-.24.39-.36.13-.12.26-.24.39-.36.13-.12.26-.24.39-.36.13-.12.26-.24.39-.36.13-.12.26-.24.39-.36.13-.12.26-.24.39-.36.13-.12.26-.24.39-.36.13-.12.26-.24.39-.36.13-.12.26-.24.39-.37.13-.12.26-.24.39-.36.13-.12.26-.24.39-.36.13-.12.26-.24.39-.36.13-.12.26-.24.39-.36.13-.12.26-.24.39-.36.13-.12.26-.24.39-.37.13-.12.26-.24.39-.36.13-.12.26-.24.39-.36.13-.12.26-.24.39-.37.13-.12.26-.24.39-.36.13-.12.26-.24.39-.36.13-.12.26-.24.39-.37.13-.12.26-.24.39-.36.13-.12.26-.24.39-.36.13-.12.26-.24.39-.37.13-.12.26-.24.39-.36.13-.12.26-.24.39-.36.13-.12.26-.24.39-.37.13-.12.26-.24.39-.36.13-.12.26-.24.39-.36.13-.12.26-.24.39-.36.13-.12.26-.24.39-.36.13-.12.26-.24.39-.36.13-.12.26-.24.39-.36.13-.12.26-.24.39-.36.13-.12.26-.24.39-.37.13-.12.26-.24.39-.36.13-.12.26-.24.39-.36.13-.12.26-.24.39-.36.13-.12.26-.24.39-.36.13-.12.26-.24.39-.36.13-.12.26-.24.39-.37.13-.12.26-.24.39-.36.13-.12.26-.24.39-.36.13-.12.26-.24.39-.36.13-.12.26-.24.39-.36.13-.12.26-.24.39-.36.13-.12.26-.24.39-.36.13-.12.26-.24.39-.36.13-.12.26-.24.39-.36.13-.12.26-.24.39-.37.13-.12.26-.24.39-.36.13-.12.26-.24.39-.36.13-.12.26-.24.39-.36.13-.12.26-.24.39-.36.13-.12.26-.24.39-.37.13-.12.26-.24.39-.37.13-.12.26-.24.39-.36.13-.12.26-.24.39-.36.13-.12.26-.24.39-.36.13-.12.26-.24.39-.36.13-.12.26-.24.39-.36.13-.12.26-.24.39-.36.13-.12.26-.24.39-.36.13-.12.26-.24.39-.37.13-.12.26-.24.39-.36.13-.12.26-.24.39-.36.13-.12.26-.24.39-.36.13-.12.26-.24.39-.36.13-.12.26-.24.39-.37.13-.12.26-.24.39-.36.13-.12.26-.24.39-.37.13-.12.26-.24.39-.36.13-.12.26-.24.39-.37.13-.12.26-.24.39-.36.13-.12.26-.24.39-.36.13-.12.26-.24.39-.37.13-.12.26-.24.39-.36.13-.12.26-.24.39-.36.13-.12.26-.24.39-.36.13-.12.26-.24.39-.37.13-.12.26-.24.39-.36.13-.12.26-.24.39-.36.13-.12.26-.24.39-.37.13-.12.26-.24.39-.36.13-.12.26-.24.39-.36.13-.12.26-.24.39-.37.13-.12.26-.24.39-.36.13-.12.26-.24.39-.37.13-.12.26-.24.39-.36.13-.12.26-.24.39-.36.13-.12.26-.24.39-.37.13-.12.26-.24.39-.36.13-.12.26-.24.39-.36.13-.12.26-.24.39-.37.13-.12.26-.24.39-.36.13-.12.26-.24.39-.36.13-.12.26-.24.39-.37.13-.12.26-.24.39-.36.13-.12.26-.24.39-.36.13-.12.26-.24.39-.36.13-.12.26-.24.39-.36.13-.12.26-.24.39-.37.13-.12.26-.24.39-.36.13-.12.26-.24.39-.36.13-.12.26-.24.39-.37.13-.12.26-.24.39-.36.13-.12.26-.24.39-.36.13-.12.26-.24.39-.37.13-.12.26-.24.39-.36.13-.12.26-.24.39-.36.13-.12.26-.24.39-.37.13-.12.26-.24.39-.36.13-.12.26-.24.39-.36.13-.12.26-.24.39-.37.13-.12.26-.24.39-.36.13-.12.26-.24.39-.36.13-.12.26-.24.39-.37.13-.12.26-.24.39-.36.13-.12.26-.24.39-.36.13-.12.26-.24.39-.37.13-.12.26-.24.39-.36.13-.12.26-.24.39-.36.13-.12.26-.24.39-.37.13-.12.26-.24.39-.36.13-.12.26-.24.39-.36.13-.12.26-.24.39-.37.13-.12.26-.24.39-.36.13-.12.26-.24.39-.37.13-.12.26-.24.39-.36.13-.12.26-.24.39-.37.13-.12.26-.24.39-.36.13-.12.26-.24.39-.36.13-.12.26-.24.39-.37.13-.12.26-.24.39-.36.78-.72,1.53-1.49,2.23-2.32,9.98-11.89,7.59-30.32-5.33-41.17Z"/>
          <circle class="cls-2" cx="32.42" cy="91.94" r="32.42"/>
          <circle class="cls-2" cx="189.65" cy="70.45" r="25.3"/>
          <circle class="cls-2" cx="279.79" cy="167.79" r="17.83"/>
        </g>
      </g>
    </g>
  </g>
</svg>