<?xml version="1.0" encoding="UTF-8"?>
<svg id="Layer_2" data-name="Layer 2" xmlns="http://www.w3.org/2000/svg" viewBox="0 0 451.62 125.5">
  <defs>
    <style>
      .cls-1 {
        fill: #202437;
      }
    </style>
  </defs>
  <g id="Front_Page" data-name="Front Page">
    <g id="Logo">
      <g>
        <g id="Version_3.1.3" data-name="Version 3.1.3">
          <path class="cls-1" d="M82.66,96.34c.04-.13.08-.25.12-.38.04-.13.08-.25.12-.38.04-.13.08-.25.12-.38.04-.13.08-.25.12-.38.04-.13.08-.25.12-.38.04-.13.08-.25.12-.38.04-.13.08-.25.12-.38.04-.13.08-.25.12-.38.04-.13.08-.25.12-.38.04-.13.08-.25.12-.38.04-.13.08-.25.12-.38.04-.13.08-.25.12-.38.04-.13.08-.25.12-.38.04-.13.08-.25.12-.38.04-.13.08-.25.12-.38.04-.13.08-.25.12-.38.04-.13.08-.25.12-.38.04-.13.08-.25.12-.38.04-.13.08-.25.12-.38.04-.13.08-.25.12-.38.04-.13.08-.25.12-.38.04-.13.08-.25.12-.38.04-.13.08-.25.12-.38.04-.13.08-.25.12-.38.04-.13.08-.25.12-.38.04-.13.08-.25.12-.38.04-.13.08-.25.12-.38.04-.13.08-.25.12-.38.04-.13.08-.25.12-.38.04-.13.08-.25.12-.38.04-.13.08-.25.12-.38.04-.13.08-.25.12-.38.04-.13.08-.25.12-.38.04-.13.08-.25.12-.38.04-.13.08-.25.12-.38.04-.13.08-.25.12-.38.04-.13.08-.25.12-.38.04-.13.08-.25.12-.38.04-.13.08-.25.12-.38.04-.13.08-.25.12-.38.04-.13.08-.25.12-.38.04-.13.08-.25.12-.38.04-.13.08-.25.12-.38.04-.13.08-.25.12-.38.04-.13.08-.25.12-.38.04-.13.08-.25.12-.38.04-.13.08-.25.12-.38.04-.13.08-.25.12-.38.04-.13.08-.25.12-.38.04-.13.08-.25.12-.38.04-.13.08-.25.12-.38.04-.13.08-.25.12-.38.04-.13.08-.25.12-.38.04-.13.08-.25.12-.38.04-.13.08-.25.12-.38.04-.13.08-.25.12-.38.04-.13.08-.25.12-.38.04-.13.08-.25.12-.38.04-.13.08-.25.12-.38.04-.13.08-.25.12-.38.04-.13.08-.25.12-.38.04-.13.08-.25.12-.38.04-.13.08-.25.12-.38.04-.13.08-.25.12-.38.04-.13.08-.25.12-.38.04-.13.08-.25.12-.38.04-.13.08-.25.12-.38.04-.13.08-.25.12-.38.04-.13.08-.25.12-.38.04-.13.08-.25.12-.38.04-.13.08-.25.12-.38.04-.13.08-.25.12-.38.04-.13.08-.25.12-.38.04-.13.08-.25.12-.38.04-.13.08-.25.12-.38.04-.13.08-.25.12-.38.04-.13.08-.25.12-.38.04-.13.08-.25.12-.38.04-.13.08-.25.12-.38.04-.13.08-.25.12-.38.04-.13.08-.25.12-.38.04-.13.08-.25.12-.38.04-.13.08-.25.12-.38.04-.13.08-.25.12-.38.04-.13.08-.25.12-.38.04-.13.08-.25.12-.38.04-.13.08-.25.12-.38.04-.13.08-.25.12-.38.04-.13.08-.25.12-.38.04-.13.08-.25.12-.38.04-.13.08-.25.12-.38.04-.13.08-.25.12-.38.04-.13.08-.25.12-.38.04-.13.08-.25.12-.38.04-.13.08-.25.12-.38.04-.13.08-.25.12-.38.04-.13.08-.25.12-.38.04-.13.08-.25.12-.38.04-.13.08-.25.12-.38.04-.13.08-.25.12-.38.04-.13.08-.25.12-.38.04-.13.08-.25.12-.38.04-.13.08-.25.12-.38.04-.13.08-.25.12-.38.04-.13.08-.25.12-.38.04-.13.08-.25.12-.38.04-.13.08-.25.12-.38.04-.13.08-.25.12-.38.04-.13.08-.25.12-.38.04-.13.08-.25.12-.38.04-.13.08-.25.12-.38.04-.13.08-.25.12-.38.04-.13.08-.25.12-.38.04-.13.08-.25.12-.38.04-.13.08-.25.12-.38.04-.13.08-.25.12-.38.04-.13.08-.25.12-.38.04-.13.08-.25.12-.38.04-.13.08-.25.12-.38.04-.13.08-.25.12-.38.04-.13.08-.25.12-.38.04-.13.08-.25.12-.38.04-.13.08-.25.12-.38.04-.13.08-.25.12-.38.04-.13.08-.25.12-.38.04-.13.08-.25.12-.38.04-.13.08-.25.12-.38.04-.13.08-.25.12-.38.04-.13.08-.25.12-.38.04-.13.08-.25.12-.38.04-.13.08-.25.12-.38.04-.13.08-.25.12-.38.04-.13.08-.25.12-.38.04-.13.08-.25.12-.38.04-.13.08-.25.12-.38.04-.13.08-.25.12-.38.04-.13.08-.25.12-.38.04-.13.08-.25.12-.38.04-.13.08-.25.12-.38.04-.12.08-.24.11-.36,0-.03.02-.05.03-.08.02-.08.05-.16.08-.24.04-.14.09-.27.13-.41.04-.13.08-.25.12-.38.04-.13.08-.25.12-.38.04-.13.08-.25.12-.38.04-.13.08-.25.12-.38.04-.13.08-.25.12-.38.04-.13.08-.25.12-.38.04-.13.08-.25.12-.38.04-.13.08-.25.12-.38.04-.13.08-.25.12-.38.04-.13.08-.25.12-.38.04-.13.08-.25.12-.38.04-.13.08-.25.12-.38.04-.13.08-.25.12-.38.04-.13.08-.25.12-.38.04-.13.08-.25.12-.38.04-.13.08-.25.12-.38.04-.13.08-.25.12-.38.04-.13.08-.25.12-.38.04-.13.08-.25.12-.38.04-.13.08-.25.12-.38.04-.13.08-.25.12-.38.04-.13.08-.25.12-.38.04-.13.08-.25.12-.38.04-.13.08-.25.12-.38.04-.13.08-.25.12-.38.04-.13.08-.25.12-.38.04-.13.08-.25.12-.38.04-.13.08-.25.12-.38.04-.13.08-.25.12-.38.04-.13.08-.25.12-.38.04-.13.08-.25.12-.38.04-.13.08-.25.12-.38.04-.13.08-.25.12-.38.04-.13.08-.25.12-.38.04-.13.08-.25.12-.38.04-.13.08-.25.12-.38.04-.13.08-.25.12-.38.04-.13.08-.25.12-.38.24-.78.44-1.57.59-2.39,2.02-11.43-6.52-22.5-19.07-24.71-12.55-2.21-24.36,5.26-26.37,16.7-.14.82-.23,1.63-.27,2.44,0,.13-.01.27-.02.4,0,.13-.01.27-.02.4,0,.13-.01.27-.02.4,0,.13-.01.27-.02.4,0,.13-.01.27-.02.4,0,.13-.01.27-.02.4,0,.13-.01.27-.02.4,0,.13-.01.27-.02.4,0,.13-.01.27-.02.4,0,.13-.01.27-.02.4,0,.13-.01.27-.02.4,0,.13-.01.27-.02.4,0,.13-.01.27-.02.4,0,.13-.01.27-.02.4,0,.13-.01.27-.02.4,0,.13-.01.27-.02.4,0,.13-.01.27-.02.4,0,.13-.01.27-.02.4,0,.13-.01.27-.02.4,0,.13-.01.27-.02.4,0,.13-.01.27-.02.4,0,.13-.01.27-.02.4,0,.13-.01.27-.02.4,0,.13-.01.27-.02.4,0,.13-.01.27-.02.4,0,.13-.01.27-.02.4,0,.13-.01.27-.02.4,0,.13-.01.27-.02.4,0,.13-.01.27-.02.4,0,.13-.01.27-.02.4,0,.13-.01.27-.02.4,0,.13-.01.27-.02.4,0,.13-.01.27-.02.4,0,.13-.01.27-.02.4,0,.13-.01.27-.02.4,0,.13-.01.27-.02.4,0,.13-.01.27-.02.4,0,.13-.01.27-.02.4,0,.13-.01.27-.02.4,0,.13-.01.27-.02.4,0,.13-.01.27-.02.4,0,.13-.01.27-.02.4,0,.13-.01.27-.02.4,0,.13-.01.27-.02.4,0,.13-.01.27-.02.4,0,.13-.01.27-.02.4,0,.13-.01.27-.02.4,0,.13-.01.27-.02.4,0,.13-.01.27-.02.4,0,.13-.01.27-.02.4,0,.13-.01.27-.02.4,0,.13-.01.27-.02.4,0,.13-.01.27-.02.4,0,.13-.01.27-.02.4,0,.13-.01.27-.02.4,0,.13-.01.27-.02.4,0,.13-.01.27-.02.4,0,.13-.01.27-.02.4,0,.13-.01.27-.02.4,0,.13-.01.27-.02.4,0,.13-.01.27-.02.4,0,.13-.01.27-.02.4,0,.13-.01.27-.02.4,0,.13-.01.27-.02.4,0,.13-.01.27-.02.4,0,.13-.01.27-.02.4,0,.13-.01.27-.02.4,0,.13-.01.27-.02.4-.01.14-.01.29-.02.43,0,.08,0,.17,0,.25,0,.03,0,.06,0,.08,0,.13-.01.25-.02.38,0,.13-.01.27-.02.4,0,.13-.01.27-.02.4,0,.13-.01.27-.02.4,0,.13-.01.27-.02.4,0,.13-.01.27-.02.4,0,.13-.01.27-.02.4,0,.13-.01.27-.02.4,0,.13-.01.27-.02.4,0,.13-.01.27-.02.4,0,.13-.01.27-.02.4,0,.13-.01.27-.02.4,0,.13-.01.27-.02.4,0,.13-.01.27-.02.4,0,.13-.01.27-.02.4,0,.13-.01.27-.02.4,0,.13-.01.27-.02.4,0,.13-.01.27-.02.4,0,.13-.01.27-.02.4,0,.13-.01.27-.02.4,0,.13-.01.27-.02.4,0,.13-.01.27-.02.4,0,.13-.01.27-.02.4,0,.13-.01.27-.02.4,0,.13-.01.27-.02.4,0,.13-.01.27-.02.4,0,.13-.01.27-.02.4,0,.13-.01.27-.02.4,0,.13-.01.27-.02.4,0,.13-.01.27-.02.4,0,.13-.01.27-.02.4,0,.13-.01.27-.02.4,0,.13-.01.27-.02.4,0,.13-.01.27-.02.4,0,.13-.01.27-.02.4,0,.13-.01.27-.02.4,0,.13-.01.27-.02.4,0,.13-.01.27-.02.4,0,.13-.01.27-.02.4,0,.13-.01.27-.02.4,0,.13-.01.27-.02.4,0,.13-.01.27-.02.4,0,.13-.01.27-.02.4,0,.13-.01.27-.02.4,0,.13-.01.27-.02.4,0,.13-.01.27-.02.4,0,.13-.01.27-.02.4,0,.13-.01.27-.02.4,0,.13-.01.27-.02.4,0,.13-.01.27-.02.4,0,.13-.01.27-.02.4,0,.13-.01.27-.02.4,0,.13-.01.27-.02.4,0,.13-.01.27-.02.4,0,.13-.01.27-.02.4,0,.13-.01.27-.02.4,0,.13-.01.27-.02.4,0,.13-.01.27-.02.4,0,.13-.01.27-.02.4,0,.13-.01.27-.02.4,0,.13-.01.27-.02.4,0,.13-.01.27-.02.4,0,.13-.01.27-.02.4,0,.13-.01.27-.02.4,0,.13-.01.27-.02.4,0,.13-.01.27-.02.4,0,.13-.01.27-.02.4,0,.13-.01.27-.02.4,0,.13-.01.27-.02.4,0,.13-.01.27-.02.4,0,.13-.01.27-.02.4,0,.13-.01.27-.02.4,0,.13-.01.27-.02.4-.01.13-.01.27-.02.4-.01.13-.01.27-.02.4,0,.13-.01.27-.02.4,0,.13-.01.27-.02.4-.01.13-.01.27-.02.4-.01.13-.01.27-.02.4-.01.13-.01.27-.02.4-.01.13-.01.27-.02.4-.01.13-.01.27-.02.4-.01.13-.01.27-.02.4-.01.13-.01.27-.02.4-.01.13-.01.27-.02.4-.01.13-.01.27-.02.4-.01.13-.01.27-.02.4-.01.13-.01.27-.02.4-.01.13-.01.27-.02.4-.01.13-.01.27-.02.4-.01.13-.01.27-.02.4-.01.13-.01.27-.02.4-.01.13-.01.27-.02.4-.01.13-.01.27-.02.4-.01.13-.01.27-.02.4-.01.13-.01.27-.02.4-.01.13-.01.27-.02.4-.01.13-.01.27-.02.4-.01.13-.01.27-.02.4-.01.13-.01.27-.02.4-.01.13-.01.27-.02.4-.01.13-.01.27-.02.4-.01.13-.01.27-.02.4-.01.13-.01.27-.02.4-.01.13-.01.27-.02.4-.01.13-.01.27-.02.4-.01.13-.01.27-.02.4-.01.13-.01.27-.02.4-.01.13-.01.27-.02.4-.01.13-.01.27-.02.4-.01.13-.01.27-.02.4-.01.13-.01.27-.02.4-.49,6.44,4.47,12.43,11.58,13.69,7.11,1.25,13.82-2.68,15.56-8.9.04-.13.08-.25.12-.38.04-.13.08-.25.12-.38Z"/>
          <path class="cls-1" d="M193.33,46.21c-8.74-7.33-21.29-6.76-28.04,1.29-.47.56-.89,1.15-1.28,1.76-.07.1-.13.2-.2.3-.07.1-.13.2-.2.3-.07.1-.13.2-.2.3-.07.1-.13.2-.2.3-.07.1-.13.2-.2.3-.07.1-.13.2-.2.31-.07.1-.13.2-.2.3-.07.1-.13.2-.2.3-.07.1-.13.2-.2.3-.07.1-.13.2-.2.3-.07.1-.13.2-.2.3-.07.1-.13.2-.2.3-.07.1-.13.2-.2.3-.07.1-.13.2-.2.3-.07.1-.13.2-.2.3-.07.1-.13.2-.2.31-.07.1-.13.2-.2.3-.07.1-.13.2-.2.3-.07.1-.13.2-.2.3-.07.1-.13.2-.2.3-.07.1-.13.2-.2.3-.07.1-.13.2-.2.3-.07.1-.13.2-.2.3-.07.1-.13.2-.2.3-.07.1-.13.2-.2.3-.07.1-.13.2-.2.3-.07.1-.13.2-.2.3-.07.1-.13.2-.2.3-.07.1-.13.2-.2.31-.07.1-.13.2-.2.3-.07.1-.13.2-.2.3-.07.1-.13.2-.2.3-.07.1-.13.2-.2.3-.07.1-.13.2-.2.3-.07.1-.13.2-.2.3-.07.1-.13.2-.2.3-.07.1-.13.2-.2.3-.07.1-.13.2-.2.3-.07.1-.13.2-.2.31-.07.1-.13.2-.2.3-.07.1-.13.2-.2.3-.07.1-.13.2-.2.3-.07.1-.13.2-.2.3-.07.1-.13.2-.2.3-.07.1-.13.2-.2.31-.07.1-.13.2-.2.3-.07.1-.13.2-.2.3-.07.1-.13.2-.2.3-.07.1-.13.2-.2.3-.07.1-.13.2-.2.3-.07.1-.13.2-.2.3-.07.1-.13.2-.2.3-.07.1-.13.2-.2.3-.07.1-.13.2-.2.3-.07.1-.13.2-.2.3-.07.1-.13.2-.2.3-.07.1-.13.2-.2.3-.07.1-.13.2-.2.3-.07.1-.13.2-.2.3-.07.1-.13.2-.2.3-.07.1-.13.2-.2.3-.07.1-.13.2-.2.3-.07.1-.13.2-.2.3-.07.1-.13.2-.2.3-.07.1-.13.2-.2.3-.07.1-.13.2-.2.3-.07.1-.13.2-.2.3-.07.1-.13.2-.2.3-.07.1-.13.2-.2.31-.07.1-.13.2-.2.3-.07.1-.13.2-.2.3-.07.1-.13.2-.2.3-.07.1-.13.2-.2.3-.07.1-.13.2-.2.3-.07.1-.13.2-.2.3-.07.1-.13.2-.2.3-.07.1-.13.2-.2.3-.07.1-.13.2-.2.3-.07.1-.13.2-.2.3-.07.1-.13.2-.2.3-.07.1-.13.2-.2.3-.07.1-.13.2-.2.3-.07.1-.13.2-.2.3-.07.1-.13.2-.2.3-.07.1-.13.2-.2.3-.07.1-.13.2-.2.3-.07.1-.13.2-.2.3-.07.1-.13.2-.2.31-.07.1-.13.2-.2.3-.07.1-.13.2-.2.31-.07.1-.13.2-.2.3-.07.1-.13.2-.2.3-.07.1-.13.2-.2.3-.07.1-.13.2-.2.3-.07.1-.13.2-.2.3-.07.1-.13.2-.2.3-.07.1-.13.2-.2.3-.07.1-.13.2-.2.3-.07.1-.13.2-.2.3-.07.1-.13.2-.2.3-.07.1-.13.2-.2.3-.07.1-.13.2-.2.3-.07.1-.13.2-.2.3-.07.1-.13.2-.2.3-.07.1-.13.2-.2.3-.07.1-.13.2-.2.3-.07.1-.13.2-.2.3-.07.1-.13.2-.2.3-.07.1-.13.2-.2.3-.07.1-.13.2-.2.3-.07.1-.13.2-.2.3-.07.1-.13.2-.2.3-.07.1-.13.2-.2.3-.07.1-.13.2-.2.3-.07.1-.13.2-.2.3-.07.1-.13.2-.2.3-.07.1-.13.2-.2.3-.07.1-.13.2-.2.31-.07.1-.13.2-.2.3-.07.1-.13.2-.2.3-.07.1-.13.2-.2.3-.07.1-.13.2-.2.3-.07.1-.13.2-.2.3-.07.1-.13.2-.2.3-.07.1-.13.2-.2.3-.07.1-.13.2-.2.3-.07.1-.13.2-.2.3-.07.1-.13.2-.2.31-.07.1-.13.2-.2.3-.07.1-.13.2-.2.3-.07.1-.13.2-.2.31-.07.1-.13.2-.2.3-.07.1-.13.2-.2.3-.07.1-.13.2-.2.3-.07.1-.13.2-.2.3-.07.1-.13.2-.2.3-.07.1-.13.2-.2.3-.07.1-.13.2-.2.3-.07.1-.13.2-.2.3-.07.1-.13.2-.2.3-.07.1-.13.2-.2.31-.07.1-.13.2-.2.3-.07.1-.13.2-.2.3-.07.1-.13.2-.2.3-.07.1-.13.2-.2.3-.07.1-.13.2-.2.3-.07.1-.13.2-.2.3-.07.1-.13.2-.2.3-.07.1-.13.2-.2.3-.07.1-.13.2-.2.3-.07.1-.13.2-.2.31-.07.1-.13.2-.2.3-.07.1-.13.2-.2.3-.07.1-.13.2-.2.3-.07.1-.13.2-.2.3-.07.1-.13.2-.2.3-.07.1-.13.2-.2.3-.07.1-.13.2-.2.3-.07.1-.13.2-.2.3-.07.1-.13.2-.2.3-.07.1-.13.2-.2.3-.07.1-.13.2-.2.3-.07.1-.13.2-.2.3-.07.1-.13.2-.2.3-.07.1-.13.2-.2.3-.07.1-.13.2-.2.3-.07.1-.13.2-.2.3-.07.1-.13.2-.2.3-.07.1-.13.2-.2.3-.07.1-.13.2-.2.3-.07.1-.13.2-.2.3-.07.1-.13.2-.2.3-.07.1-.13.2-.2.3-.07.1-.13.2-.2.3-.07.1-.13.2-.2.3-.07.1-.13.2-.2.3-.07.1-.13.2-.2.31-.07.1-.13.2-.2.3-.07.1-.13.2-.2.31-.07.1-.13.2-.2.3-.07.1-.13.2-.2.3-.07.1-.13.2-.2.3-3.3,4.82-2.17,11.72,2.78,15.87,4.95,4.16,11.94,4.07,16.11-.02.09-.08.18-.16.27-.25.09-.08.18-.16.27-.25.09-.08.18-.16.27-.25.09-.08.18-.16.27-.25.09-.08.18-.16.27-.25.09-.08.18-.16.27-.25.09-.08.18-.16.27-.25.09-.08.18-.16.27-.25.09-.08.18-.16.26-.25.09-.08.18-.16.27-.25.09-.08.18-.16.27-.25.09-.08.18-.16.27-.25.09-.08.18-.16.27-.25.09-.08.18-.16.27-.25.09-.08.18-.16.26-.25.09-.08.18-.16.27-.25.09-.08.18-.16.27-.25.09-.08.18-.16.27-.25.09-.08.18-.16.27-.25.09-.08.18-.16.27-.25.09-.08.18-.16.27-.25.09-.08.18-.16.27-.25.09-.08.18-.16.27-.25.09-.08.18-.16.27-.25.09-.08.18-.16.27-.25.09-.08.18-.16.27-.25.09-.08.18-.16.27-.25.09-.08.18-.16.27-.25.09-.08.18-.16.27-.25.09-.08.18-.16.27-.25.09-.08.18-.16.27-.25.09-.08.18-.16.27-.25.09-.08.18-.16.27-.25.09-.08.18-.16.27-.25.09-.08.18-.16.27-.25.09-.08.18-.16.27-.25.09-.08.18-.16.27-.25.09-.08.18-.16.27-.25.09-.08.18-.16.27-.25.09-.08.18-.16.27-.25.09-.08.18-.16.27-.25.09-.08.18-.16.27-.25.09-.08.18-.16.27-.25.09-.08.18-.16.27-.25.09-.08.18-.16.27-.25.09-.08.18-.16.27-.25.09-.08.18-.16.27-.25.09-.08.18-.16.27-.25.09-.08.18-.16.27-.25.09-.08.18-.16.27-.25.09-.08.18-.16.27-.25.09-.08.18-.16.27-.25.09-.08.18-.16.27-.25.09-.08.18-.16.27-.25.09-.08.18-.16.27-.25.09-.08.18-.16.26-.25.09-.08.18-.16.27-.25.09-.08.18-.16.27-.25.09-.08.18-.16.27-.25.09-.08.18-.16.27-.25.09-.08.18-.16.27-.25.09-.08.18-.16.26-.25.09-.08.18-.16.27-.25.09-.08.18-.16.27-.25.09-.08.18-.16.27-.25.09-.08.18-.16.27-.25.09-.08.18-.16.27-.25.09-.08.18-.16.26-.25.09-.08.18-.16.27-.25.09-.08.18-.16.27-.25.09-.08.18-.16.27-.25.09-.08.18-.16.27-.25.09-.08.18-.16.26-.25.09-.08.18-.16.27-.25.09-.08.18-.16.27-.25.09-.08.18-.16.27-.25.09-.08.18-.16.27-.25.09-.08.18-.16.27-.25.09-.08.18-.16.27-.25.09-.08.18-.16.27-.25.09-.08.18-.16.27-.25.09-.08.18-.16.27-.25.09-.08.18-.16.27-.25.09-.08.18-.16.27-.25.09-.08.18-.16.27-.25.09-.08.18-.16.27-.25.09-.08.18-.16.27-.25.09-.08.18-.16.26-.25.09-.08.18-.16.27-.25.09-.08.18-.16.27-.25.09-.08.18-.16.27-.25.09-.08.18-.16.27-.25.09-.08.18-.16.27-.25.09-.08.18-.16.27-.25.09-.08.18-.16.27-.25.09-.08.18-.16.27-.25.09-.08.18-.16.27-.25.09-.08.18-.16.27-.25.09-.08.18-.16.26-.25.09-.08.18-.16.27-.25.09-.08.18-.16.27-.25.09-.08.18-.16.26-.25.09-.08.18-.16.27-.25.09-.08.18-.16.27-.25.09-.08.18-.16.27-.25.09-.08.18-.16.27-.25.09-.08.18-.16.27-.25.09-.08.18-.16.27-.25.09-.08.18-.16.27-.25.09-.08.18-.16.27-.25.09-.08.18-.16.27-.25.09-.08.18-.16.27-.25.09-.08.18-.16.27-.25.09-.08.18-.16.27-.25.09-.08.18-.16.27-.25.09-.08.18-.16.27-.25.09-.08.18-.16.27-.25.09-.08.18-.16.27-.25.09-.08.18-.16.27-.25.09-.08.18-.16.26-.25.09-.08.18-.16.27-.25.09-.08.18-.16.27-.25.09-.08.18-.16.27-.25.09-.08.18-.16.27-.25.09-.08.18-.16.27-.25.09-.08.18-.16.27-.25.09-.08.18-.16.27-.25.09-.08.18-.16.27-.25.09-.08.18-.16.27-.25.09-.08.18-.16.27-.25.09-.08.18-.16.27-.25.09-.08.18-.16.27-.25.09-.08.18-.16.27-.25.09-.08.18-.16.27-.25.09-.08.18-.16.27-.25.09-.08.18-.16.27-.25.09-.08.18-.16.27-.25.09-.08.18-.16.26-.25.09-.08.18-.16.27-.25.09-.08.18-.16.27-.25.09-.08.18-.16.26-.25.09-.08.18-.16.27-.25.09-.08.18-.16.27-.25.09-.08.18-.16.27-.25.09-.08.18-.16.27-.25.09-.08.18-.16.27-.25.09-.08.18-.16.27-.25.09-.08.18-.16.27-.25.09-.08.18-.16.27-.25.09-.08.18-.16.27-.25.09-.08.18-.16.27-.25.09-.08.18-.16.27-.25.09-.08.18-.16.27-.25.09-.08.18-.16.27-.25.09-.08.18-.16.26-.25.09-.08.18-.16.27-.25.09-.08.18-.16.27-.25.09-.08.18-.16.27-.25.09-.08.18-.16.27-.25.09-.08.18-.16.27-.25.09-.08.18-.16.27-.25.09-.08.18-.16.27-.25.09-.08.18-.16.27-.25.09-.08.18-.16.27-.25.09-.08.18-.16.27-.25.09-.08.18-.16.26-.25.09-.08.18-.16.27-.25.09-.08.18-.16.27-.25.09-.08.18-.16.27-.25.09-.08.18-.16.27-.25.09-.08.18-.16.27-.25.09-.08.18-.16.27-.25.09-.08.18-.16.27-.25.09-.08.18-.16.27-.25.09-.08.18-.16.27-.25.09-.08.18-.16.27-.25.09-.08.18-.16.27-.25.09-.08.18-.16.27-.25.09-.08.18-.16.27-.25.09-.08.18-.16.27-.25.09-.08.18-.16.27-.25.09-.08.18-.16.27-.25.53-.49,1.03-1.01,1.51-1.57,6.75-8.04,5.13-20.5-3.6-27.84Z"/>
          <circle class="cls-1" cx="21.92" cy="62.16" r="21.92"/>
          <circle class="cls-1" cx="128.23" cy="47.63" r="17.11"/>
          <circle class="cls-1" cx="189.18" cy="113.45" r="12.05"/>
        </g>
        <path id="Base" class="cls-1" d="M247.98,86.07h29.47v7.24h-20.39v10.31h17.99v7.24h-17.99v14.2h-9.08v-38.99ZM290.77,82.53c-.9-.87-2.06-1.31-3.47-1.31s-2.61.46-3.49,1.39c-.89.93-1.33,2.08-1.33,3.45s.44,2.53,1.33,3.45c.89.93,2.05,1.39,3.49,1.39s2.61-.47,3.49-1.42c.89-.95,1.33-2.14,1.33-3.59s-.45-2.5-1.35-3.37ZM282.96,125.06h8.69v-29.97h-8.69v29.97ZM313.15,118.6c-1.12,0-2-.35-2.65-1.06-.65-.71-.98-1.69-.98-2.95v-12.81h7.41v-6.68h-7.41v-6.63h-8.74v6.63h-4.62v6.68h4.62v12.98c0,3.57.98,6.25,2.95,8.05,1.97,1.8,4.72,2.7,8.24,2.7,1.34,0,2.63-.16,3.87-.47,1.24-.32,2.29-.79,3.15-1.42l-2.28-6.13c-.97.74-2.15,1.11-3.56,1.11ZM348.55,96.06c-1.88-.95-4-1.42-6.38-1.42-2.56,0-4.85.54-6.85,1.62-1.18.64-2.2,1.44-3.06,2.4v-3.57h-8.3v29.97h8.69v-14.82c0-1.89.31-3.42.92-4.57.61-1.15,1.47-2.02,2.56-2.62,1.09-.59,2.33-.89,3.7-.89,1.93,0,3.43.58,4.48,1.73,1.06,1.15,1.59,2.93,1.59,5.35v15.82h8.69v-17.16c0-3.04-.54-5.54-1.62-7.49-1.08-1.95-2.55-3.4-4.43-4.35ZM389.96,101.89c1.37,2.3,2.06,5.07,2.06,8.3,0,.33-.02.72-.06,1.14-.04.43-.07.83-.11,1.2h-22.66c.18.81.47,1.55.88,2.23.74,1.23,1.76,2.16,3.06,2.81,1.3.65,2.86.97,4.68.97,1.56,0,2.94-.24,4.15-.72,1.21-.48,2.31-1.21,3.31-2.17l4.62,5.01c-1.37,1.56-3.1,2.76-5.18,3.59-2.08.84-4.48,1.25-7.19,1.25-3.42,0-6.41-.67-8.97-2.01-2.56-1.34-4.55-3.17-5.96-5.49-1.41-2.32-2.12-4.97-2.12-7.94s.68-5.63,2.03-7.97c1.35-2.34,3.25-4.17,5.68-5.49,2.43-1.32,5.17-1.98,8.22-1.98s5.58.63,7.94,1.89c2.36,1.26,4.22,3.05,5.6,5.35ZM369.91,104.92c-.41.75-.67,1.6-.81,2.53h14.7c-.13-.94-.38-1.8-.8-2.56-.63-1.15-1.5-2.05-2.62-2.7-1.11-.65-2.41-.97-3.9-.97s-2.8.33-3.93.97c-1.13.65-2.01,1.56-2.64,2.73ZM418.45,109.32c-1.1-.61-2.28-1.09-3.54-1.42-1.26-.33-2.54-.59-3.84-.78-1.3-.19-2.49-.37-3.56-.56-1.08-.19-1.95-.47-2.62-.86-.67-.39-1-.96-1-1.7,0-.82.45-1.49,1.34-2.01.89-.52,2.34-.78,4.34-.78,1.34,0,2.74.17,4.21.5,1.47.33,2.91.91,4.32,1.73l2.95-6.18c-1.45-.82-3.22-1.46-5.32-1.92-2.1-.46-4.19-.7-6.27-.7-2.9,0-5.37.41-7.41,1.23-2.04.82-3.62,1.96-4.73,3.43-1.12,1.47-1.67,3.15-1.67,5.04,0,1.71.32,3.1.98,4.18.65,1.08,1.52,1.92,2.62,2.53s2.28,1.09,3.57,1.42c1.28.33,2.57.59,3.87.78,1.3.19,2.48.37,3.54.56,1.06.19,1.91.45,2.56.81.65.35.98.88.98,1.59,0,.85-.42,1.52-1.25,2.01-.84.48-2.26.72-4.26.72-1.82,0-3.67-.27-5.54-.81-1.88-.54-3.52-1.22-4.93-2.03l-2.84,6.18c1.41.93,3.29,1.7,5.63,2.31,2.34.61,4.79.92,7.35.92,3.01,0,5.56-.41,7.66-1.23,2.1-.82,3.7-1.94,4.82-3.37,1.11-1.43,1.67-3.05,1.67-4.87,0-1.71-.33-3.1-.98-4.18-.65-1.08-1.52-1.92-2.62-2.53ZM450.65,111.86c-.65-1.08-1.52-1.92-2.62-2.53-1.1-.61-2.28-1.09-3.54-1.42-1.26-.33-2.54-.59-3.84-.78-1.3-.19-2.49-.37-3.56-.56-1.08-.19-1.95-.47-2.62-.86-.67-.39-1-.96-1-1.7,0-.82.45-1.49,1.34-2.01.89-.52,2.34-.78,4.34-.78,1.34,0,2.74.17,4.21.5,1.47.33,2.91.91,4.32,1.73l2.95-6.18c-1.45-.82-3.22-1.46-5.32-1.92-2.1-.46-4.19-.7-6.27-.7-2.9,0-5.37.41-7.41,1.23-2.04.82-3.62,1.96-4.73,3.43-1.12,1.47-1.67,3.15-1.67,5.04,0,1.71.32,3.1.97,4.18.65,1.08,1.52,1.92,2.62,2.53,1.1.61,2.28,1.09,3.57,1.42,1.28.33,2.57.59,3.87.78,1.3.19,2.48.37,3.54.56,1.06.19,1.91.45,2.56.81.65.35.98.88.98,1.59,0,.85-.42,1.52-1.25,2.01-.84.48-2.26.72-4.26.72-1.82,0-3.67-.27-5.54-.81-1.88-.54-3.52-1.22-4.93-2.03l-2.84,6.18c1.41.93,3.29,1.7,5.63,2.31,2.34.61,4.79.92,7.35.92,3.01,0,5.56-.41,7.66-1.23,2.1-.82,3.7-1.94,4.82-3.37,1.11-1.43,1.67-3.05,1.67-4.87,0-1.71-.33-3.1-.98-4.18ZM279.73,43.14c1.37,2.12,2.06,4.62,2.06,7.52s-.69,5.45-2.06,7.55c-1.37,2.1-3.32,3.72-5.85,4.87-2.53,1.15-5.53,1.73-9.02,1.73h-7.8v10.75h-9.08v-38.99h16.88c3.49,0,6.5.57,9.02,1.7,2.53,1.13,4.47,2.76,5.85,4.87ZM272.71,50.66c0-2.15-.71-3.82-2.12-4.99-1.41-1.17-3.49-1.75-6.24-1.75h-7.3v13.54h7.3c2.75,0,4.83-.59,6.24-1.78,1.41-1.19,2.12-2.86,2.12-5.01ZM309.7,60.46c0,1.78-.31,3.27-.92,4.46-.61,1.19-1.44,2.08-2.48,2.67-1.04.59-2.23.89-3.56.89-1.93,0-3.43-.58-4.48-1.75-1.06-1.17-1.59-3.02-1.59-5.54v-15.6h-8.69v16.93c0,3.05.54,5.57,1.62,7.58,1.08,2.01,2.58,3.49,4.51,4.46,1.93.97,4.16,1.45,6.68,1.45,2.3,0,4.42-.53,6.35-1.59,1.14-.63,2.12-1.43,2.95-2.42v3.56h8.24v-29.97h-8.63v14.87ZM326.41,75.56h8.69v-41.33h-8.69v41.33ZM363.81,59.82c-1.1-.61-2.28-1.09-3.54-1.42-1.26-.33-2.54-.59-3.84-.78-1.3-.19-2.49-.37-3.56-.56-1.08-.19-1.95-.47-2.62-.86-.67-.39-1-.96-1-1.7,0-.82.45-1.48,1.34-2.01.89-.52,2.34-.78,4.34-.78,1.34,0,2.74.17,4.21.5,1.47.33,2.91.91,4.32,1.73l2.95-6.18c-1.45-.82-3.22-1.46-5.32-1.92-2.1-.46-4.19-.7-6.27-.7-2.9,0-5.37.41-7.41,1.23-2.04.82-3.62,1.96-4.73,3.43-1.12,1.47-1.67,3.15-1.67,5.04,0,1.71.32,3.1.98,4.18.65,1.08,1.52,1.92,2.62,2.53,1.1.61,2.28,1.09,3.57,1.42,1.28.33,2.57.59,3.87.78,1.3.19,2.48.37,3.54.56,1.06.19,1.91.46,2.56.81.65.35.98.88.98,1.59,0,.85-.42,1.52-1.25,2.01-.84.48-2.26.72-4.26.72-1.82,0-3.67-.27-5.54-.81-1.88-.54-3.52-1.22-4.93-2.03l-2.84,6.18c1.41.93,3.29,1.7,5.63,2.31s4.79.92,7.35.92c3.01,0,5.56-.41,7.66-1.22,2.1-.82,3.7-1.94,4.82-3.37,1.11-1.43,1.67-3.05,1.67-4.87,0-1.71-.32-3.1-.98-4.18-.65-1.08-1.52-1.92-2.62-2.53ZM402.11,60.69c0,.33-.02.72-.06,1.14-.04.43-.07.83-.11,1.2h-22.66c.18.81.47,1.55.88,2.23.74,1.23,1.76,2.16,3.06,2.81,1.3.65,2.86.97,4.68.97,1.56,0,2.94-.24,4.15-.72,1.21-.48,2.31-1.21,3.31-2.17l4.62,5.01c-1.37,1.56-3.1,2.76-5.18,3.59-2.08.84-4.48,1.25-7.19,1.25-3.42,0-6.41-.67-8.97-2.01-2.56-1.34-4.55-3.17-5.96-5.49-1.41-2.32-2.12-4.97-2.12-7.94s.68-5.63,2.03-7.97c1.35-2.34,3.25-4.17,5.68-5.49,2.43-1.32,5.17-1.98,8.22-1.98s5.58.63,7.94,1.89c2.36,1.26,4.22,3.05,5.6,5.35,1.37,2.3,2.06,5.07,2.06,8.3ZM379.99,55.42c-.41.75-.67,1.6-.81,2.53h14.7c-.13-.94-.38-1.8-.8-2.56-.63-1.15-1.5-2.05-2.62-2.7-1.11-.65-2.41-.97-3.9-.97s-2.8.33-3.93.97c-1.13.65-2.01,1.56-2.64,2.73Z"/>
      </g>
    </g>
  </g>
</svg>