<?xml version="1.0" encoding="UTF-8"?>
<svg id="Layer_2" data-name="Layer 2" xmlns="http://www.w3.org/2000/svg" viewBox="0 0 297.61 185.61">
  <defs>
    <style>
      .cls-1 {
        fill: #449fee;
      }

      .cls-2 {
        fill: #202437;
      }

      .cls-3 {
        fill: #e93c79;
      }
    </style>
  </defs>
  <g id="Front_Page" data-name="Front Page">
    <g id="Logo">
      <g id="Version_3.1.4" data-name="Version 3.1.4">
        <path class="cls-3" d="M122.25,142.48c.06-.19.12-.38.18-.57.06-.19.12-.37.18-.57.06-.19.12-.38.18-.57.06-.19.12-.38.18-.57.06-.19.12-.37.18-.57.06-.19.12-.38.18-.57.06-.19.12-.37.18-.57.06-.19.12-.38.18-.57.06-.19.12-.38.18-.57.06-.19.12-.38.18-.57.06-.19.12-.37.18-.57.06-.19.12-.37.18-.57.06-.19.12-.38.18-.57.06-.19.12-.38.18-.57.06-.19.12-.37.18-.57.06-.19.12-.38.18-.57.06-.19.12-.38.18-.57.06-.19.12-.38.18-.57.06-.19.12-.38.18-.57.06-.19.12-.38.18-.57.06-.19.12-.37.18-.57.06-.19.12-.38.18-.57.06-.19.12-.37.17-.57.06-.19.12-.38.18-.57.06-.19.12-.38.18-.57.06-.19.12-.38.18-.57.06-.19.12-.38.18-.57.06-.19.12-.38.18-.57.06-.19.12-.37.17-.57.06-.19.12-.37.18-.57.06-.19.12-.38.18-.57.06-.19.12-.37.17-.57.06-.19.12-.38.18-.57.06-.19.12-.38.18-.57.06-.19.12-.37.18-.57.06-.19.12-.38.18-.57.06-.19.12-.38.18-.57.06-.19.12-.38.18-.57.06-.19.12-.37.18-.57.06-.19.12-.38.18-.57.06-.19.12-.38.18-.57.06-.19.12-.38.18-.57.06-.19.12-.37.18-.57.06-.19.12-.38.18-.57.06-.19.12-.38.18-.57.06-.19.12-.38.18-.57.06-.19.12-.38.18-.57.06-.19.12-.37.17-.57.06-.19.12-.38.18-.57.06-.19.12-.38.18-.57.06-.19.12-.38.18-.57.06-.19.12-.38.18-.57.06-.19.12-.38.18-.57.06-.19.12-.37.17-.57.06-.19.12-.38.18-.57.06-.19.12-.38.18-.57.06-.19.12-.37.18-.57.06-.19.12-.37.18-.57.06-.19.12-.38.18-.57.06-.19.12-.37.17-.57.06-.19.12-.38.18-.57.06-.19.12-.37.17-.57.06-.19.12-.38.18-.57.06-.19.12-.38.18-.57.06-.19.12-.38.18-.57.06-.19.12-.37.17-.57.06-.19.12-.38.18-.57.06-.19.12-.38.18-.57.06-.19.12-.37.18-.57.06-.19.12-.38.18-.57.06-.19.12-.38.18-.57.06-.19.12-.37.17-.57.06-.19.12-.37.18-.57.06-.19.12-.38.18-.57.06-.19.12-.38.18-.57.06-.19.12-.38.18-.57.06-.19.12-.38.18-.57.06-.19.12-.37.17-.56.06-.19.12-.38.18-.57.06-.19.12-.38.18-.57.06-.19.12-.38.18-.57.06-.19.12-.38.18-.57.06-.19.12-.38.18-.57.06-.19.12-.37.17-.57.06-.19.12-.38.18-.57.06-.19.12-.38.18-.57.06-.19.12-.37.17-.57.06-.19.12-.38.18-.57.06-.19.12-.38.18-.57.06-.19.12-.37.17-.57.06-.19.12-.38.18-.57.06-.19.12-.38.18-.57.06-.19.12-.38.18-.57.06-.19.12-.38.18-.57.06-.19.12-.38.18-.57.06-.19.12-.37.17-.57.06-.19.12-.38.18-.57.06-.19.12-.38.18-.57.06-.19.12-.38.18-.57.06-.19.12-.38.18-.57.06-.19.12-.38.18-.57.06-.19.12-.38.17-.57.06-.19.12-.38.18-.57.06-.19.12-.38.18-.57.06-.19.12-.38.18-.57.06-.19.12-.38.18-.57.06-.19.12-.38.18-.57.06-.19.12-.37.17-.56.06-.19.12-.38.18-.57.06-.19.12-.38.18-.57.06-.19.12-.38.18-.57.06-.19.12-.37.17-.57.06-.19.12-.38.18-.57.06-.19.12-.37.17-.57.06-.19.12-.38.18-.57.06-.19.12-.38.18-.57.06-.19.12-.37.17-.57.06-.19.12-.38.18-.57.06-.19.12-.38.18-.57.06-.19.12-.37.17-.57.06-.19.12-.38.18-.57.06-.19.12-.38.18-.57.06-.19.12-.38.18-.57.06-.19.12-.38.18-.57.06-.19.12-.38.18-.57.06-.19.12-.37.17-.57.06-.19.12-.38.18-.57.06-.19.12-.38.18-.57.06-.19.12-.38.18-.57.06-.19.12-.38.18-.57.06-.19.12-.38.18-.57.06-.19.12-.37.17-.57.06-.19.12-.38.18-.57.06-.19.12-.38.18-.57.06-.19.12-.38.18-.57.06-.19.12-.38.18-.57.06-.19.12-.38.18-.57.06-.19.12-.37.17-.57.06-.19.12-.38.18-.57.06-.18.12-.36.17-.54.01-.04.03-.08.04-.12.04-.12.08-.24.12-.36.06-.2.13-.41.19-.61.06-.19.12-.38.18-.57.06-.19.12-.37.17-.56.06-.19.12-.38.18-.57.06-.19.12-.38.18-.57.06-.19.12-.38.18-.57.06-.19.12-.38.18-.57.06-.19.12-.38.18-.57.06-.19.12-.37.17-.56.06-.19.12-.38.18-.57.06-.19.12-.38.18-.57.06-.19.12-.38.18-.57.06-.19.12-.38.18-.57.06-.19.12-.38.18-.57.06-.19.12-.38.18-.57.06-.19.12-.38.18-.57.06-.19.12-.38.17-.57.06-.19.12-.38.18-.57.06-.19.12-.38.18-.57.06-.19.12-.38.18-.57.06-.19.12-.37.17-.57.06-.19.12-.38.18-.57.06-.19.12-.38.18-.57.06-.19.12-.38.18-.57.06-.19.12-.38.18-.57.06-.19.12-.38.18-.57.06-.19.12-.38.17-.57.06-.19.12-.37.17-.57.06-.19.12-.38.18-.57.06-.19.12-.38.18-.57.06-.19.12-.38.17-.57.06-.19.12-.38.18-.57.06-.19.12-.37.17-.56.06-.19.12-.38.18-.57.06-.19.12-.38.18-.57.06-.19.12-.38.18-.57.06-.19.12-.38.18-.57.06-.19.12-.38.18-.57.06-.19.12-.37.17-.56.36-1.15.65-2.32.87-3.53,2.98-16.91-9.65-33.27-28.2-36.54-18.56-3.27-36.02,7.78-39,24.69-.21,1.21-.34,2.42-.39,3.61-.01.2-.02.39-.03.59-.01.2-.02.4-.03.59-.01.2-.02.39-.03.59-.01.2-.02.4-.03.59-.01.2-.02.39-.03.59-.01.2-.02.4-.03.59-.01.2-.02.39-.03.59-.01.2-.02.4-.03.59-.01.2-.02.39-.03.59-.01.2-.02.39-.03.59-.01.2-.02.39-.03.59-.01.2-.02.4-.03.59-.01.2-.02.39-.03.59-.01.2-.02.39-.03.59-.01.2-.02.4-.03.59-.01.2-.02.39-.03.59-.01.2-.02.39-.03.59-.01.2-.02.4-.03.59-.01.2-.02.39-.03.59-.01.2-.02.4-.03.59-.01.2-.02.39-.03.59-.01.2-.02.4-.03.59-.01.2-.02.39-.03.59-.01.2-.02.4-.03.59-.01.2-.02.39-.03.59-.01.2-.02.4-.03.59-.01.2-.02.39-.03.59-.01.2-.02.39-.03.59-.01.2-.02.4-.03.59-.01.2-.02.39-.03.59-.01.2-.02.4-.03.59-.01.2-.02.4-.03.59-.01.2-.02.39-.03.59-.01.2-.02.4-.03.59-.01.2-.02.39-.03.59-.01.2-.02.4-.03.59-.01.2-.02.39-.03.59-.01.2-.02.4-.03.59-.01.2-.02.39-.03.59-.01.2-.02.4-.03.59-.01.2-.02.39-.03.59-.01.2-.02.39-.03.59-.01.2-.02.4-.03.59-.01.2-.02.39-.03.59-.01.2-.02.4-.03.59-.01.2-.02.39-.03.59-.01.2-.02.4-.03.59-.01.2-.02.39-.03.59-.01.2-.02.39-.03.59-.01.2-.02.4-.03.59-.01.2-.02.39-.03.59-.01.2-.02.4-.03.59-.01.2-.02.39-.03.59-.01.2-.02.4-.03.59-.01.2-.02.4-.03.59-.01.2-.02.39-.03.59-.01.2-.02.4-.03.59-.01.2-.02.39-.03.59-.01.2-.02.4-.03.59-.01.2-.02.39-.03.59-.01.2-.02.4-.03.59-.01.2-.02.39-.03.59-.01.2-.02.4-.03.59-.01.2-.02.39-.03.59-.01.2-.02.39-.03.59-.01.2-.02.4-.03.59-.01.2-.02.39-.03.59-.01.2-.02.39-.03.59-.01.21-.02.43-.03.64,0,.13,0,.25-.01.37,0,.04,0,.08,0,.12-.01.19-.02.37-.03.56-.01.2-.02.39-.03.59-.01.2-.02.39-.03.59-.01.2-.02.39-.03.59-.01.2-.02.4-.03.59-.01.2-.02.39-.03.59-.01.2-.02.39-.03.59-.01.2-.02.39-.03.59-.01.2-.02.4-.03.59-.01.2-.02.39-.03.59-.01.2-.02.39-.03.59-.01.2-.02.39-.03.59-.01.2-.02.39-.03.59-.01.2-.02.39-.03.59-.01.2-.02.39-.03.59-.01.2-.02.4-.03.59-.01.2-.02.39-.03.59-.01.2-.02.39-.03.59-.01.2-.02.4-.03.59-.01.2-.02.39-.03.59-.01.2-.02.4-.03.59-.01.2-.02.39-.03.59-.01.2-.02.4-.03.59-.01.2-.02.39-.03.59-.01.2-.02.4-.03.59-.01.2-.02.39-.03.59-.01.2-.02.39-.03.59-.01.2-.02.39-.03.59-.01.2-.02.39-.03.59-.01.2-.02.4-.03.59-.01.2-.02.39-.03.59-.01.2-.02.39-.03.59-.01.2-.02.39-.03.59-.01.2-.02.39-.03.59-.01.2-.02.4-.03.59-.01.2-.02.39-.03.59-.01.2-.02.4-.03.59-.01.2-.02.39-.03.59-.01.2-.02.4-.03.59-.01.2-.02.39-.03.59-.01.2-.02.39-.03.59-.01.2-.02.39-.03.59-.01.2-.02.39-.03.59-.01.2-.02.4-.03.59-.01.2-.02.39-.03.59-.01.2-.02.39-.03.59-.01.2-.02.39-.03.59-.01.2-.02.4-.03.59-.01.2-.02.39-.03.59-.01.2-.02.39-.03.59-.01.2-.02.39-.03.59-.01.2-.02.39-.03.59-.01.2-.02.4-.03.59-.01.2-.02.39-.03.59-.01.2-.02.4-.03.59-.01.2-.02.39-.03.59-.01.2-.02.39-.03.59-.01.2-.02.4-.03.59-.01.2-.02.39-.03.59-.01.2-.02.4-.03.59-.01.2-.02.39-.03.59-.01.2-.02.39-.03.59-.01.2-.02.39-.03.59-.01.2-.02.4-.03.59-.01.2-.02.39-.03.59-.01.2-.02.39-.03.59-.01.2-.02.4-.03.59-.01.2-.02.39-.03.59-.01.2-.02.4-.03.59-.01.2-.02.39-.03.59-.01.2-.02.39-.03.59-.01.2-.02.39-.03.59-.01.2-.02.39-.03.59-.01.2-.02.39-.03.59-.01.2-.02.39-.03.59-.01.2-.02.39-.03.59-.01.2-.02.39-.03.59-.01.2-.02.4-.03.59-.01.2-.02.39-.03.59-.01.2-.02.4-.03.59-.01.2-.02.39-.03.59-.01.2-.02.39-.03.59-.01.2-.02.4-.03.59-.01.2-.02.39-.03.59-.01.2-.02.39-.03.59-.01.2-.02.39-.03.59-.01.2-.02.39-.03.59-.01.2-.02.39-.03.59-.01.2-.02.4-.03.59-.01.2-.02.39-.03.59-.01.2-.02.39-.03.59-.01.2-.02.4-.03.59-.01.2-.02.39-.03.59-.01.2-.02.39-.03.59-.01.2-.02.39-.03.59-.01.2-.02.39-.03.59-.01.2-.02.39-.03.59-.01.2-.02.39-.03.59-.01.2-.02.4-.03.59-.01.2-.02.39-.03.59-.01.2-.02.4-.03.59-.01.2-.02.39-.03.59-.02.2-.02.4-.03.59-.01.2-.02.39-.03.59-.02.2-.02.4-.03.59-.01.2-.02.39-.03.59-.01.2-.02.39-.03.59-.02.2-.02.4-.03.59-.01.2-.02.39-.03.59-.02.2-.02.4-.03.59-.02.2-.02.39-.03.59-.02.2-.02.4-.03.59-.73,9.53,6.61,18.39,17.12,20.25,10.52,1.85,20.44-3.97,23.02-13.17.06-.19.12-.37.17-.57.06-.19.12-.38.18-.57Z"/>
        <path class="cls-1" d="M285.92,68.34c-12.92-10.84-31.49-9.99-41.47,1.9-.7.83-1.32,1.7-1.9,2.6-.1.15-.19.3-.29.45-.1.15-.19.3-.29.45-.1.15-.19.3-.29.45-.1.15-.19.3-.29.45-.1.15-.19.3-.29.45-.1.15-.19.3-.29.45-.1.15-.19.3-.29.45-.1.15-.19.3-.29.45-.1.15-.19.3-.29.45-.1.15-.19.3-.29.45-.1.15-.19.3-.29.45-.1.15-.19.3-.29.45-.1.15-.19.3-.29.45-.1.15-.19.3-.29.45-.1.15-.19.3-.29.45-.1.15-.19.3-.29.45-.1.15-.19.3-.29.45-.1.15-.19.3-.29.45-.1.15-.19.3-.29.45-.1.15-.19.3-.29.45-.1.15-.19.3-.29.45-.1.15-.19.3-.29.45-.1.15-.19.3-.29.45-.1.15-.19.3-.29.45-.1.15-.19.3-.29.45-.1.15-.19.3-.29.45-.1.15-.19.3-.29.45-.1.15-.19.3-.29.45-.1.15-.19.3-.29.45-.1.15-.19.3-.29.45-.1.15-.19.3-.29.45-.1.15-.19.3-.29.45-.1.15-.19.3-.29.45-.1.15-.19.3-.29.45-.1.15-.19.3-.29.45-.1.15-.19.3-.29.45-.1.15-.19.3-.29.45-.1.15-.19.3-.29.45-.1.15-.19.3-.29.45-.1.15-.19.3-.29.45-.1.15-.19.3-.29.45-.1.15-.19.3-.29.45-.1.15-.19.3-.29.45-.1.15-.19.3-.29.45-.1.15-.19.3-.29.45-.1.15-.19.3-.29.45-.1.15-.19.3-.29.45-.1.15-.19.3-.29.45-.1.15-.19.3-.29.45-.1.15-.19.3-.29.45-.1.15-.19.3-.29.45-.1.15-.19.3-.29.45-.1.15-.19.3-.29.45-.1.15-.19.3-.29.45-.1.15-.19.3-.29.45-.1.15-.19.3-.29.45-.1.15-.19.3-.29.45-.1.15-.19.3-.29.45-.1.15-.19.3-.29.45-.1.15-.19.3-.29.45-.1.15-.19.3-.29.45-.1.15-.19.3-.29.45-.1.15-.19.3-.29.45-.1.15-.19.3-.29.45-.1.15-.19.3-.29.45-.1.15-.19.3-.29.45-.1.15-.19.3-.29.45-.1.15-.19.3-.29.45-.1.15-.19.3-.29.45-.1.15-.19.3-.29.45-.1.15-.19.3-.29.45-.1.15-.19.3-.29.45-.1.15-.19.3-.29.45-.1.15-.19.3-.29.45-.1.15-.19.3-.29.45-.1.15-.19.3-.29.45-.1.15-.19.3-.29.45-.1.15-.19.3-.29.45-.1.15-.19.3-.29.45-.1.15-.19.3-.29.45-.1.15-.19.3-.29.45-.1.15-.19.3-.29.45-.1.15-.19.3-.29.45-.1.15-.19.3-.29.45-.1.15-.19.3-.29.45-.1.15-.19.3-.29.45-.1.15-.19.3-.29.45-.1.15-.19.3-.29.45-.1.15-.19.3-.29.45-.1.15-.19.3-.29.45-.1.15-.19.3-.29.45-.1.15-.19.3-.29.45-.1.15-.19.3-.29.45-.1.15-.19.3-.29.45-.1.15-.19.3-.29.45-.1.15-.19.3-.29.45-.1.15-.19.3-.29.45-.1.15-.19.3-.29.45-.1.15-.19.3-.29.45-.1.15-.19.3-.29.45-.1.15-.19.3-.29.45-.1.15-.19.3-.29.45-.1.15-.19.3-.29.45-.1.15-.19.3-.29.45-.1.15-.19.3-.29.45-.1.15-.19.3-.29.45-.1.15-.19.3-.29.45-.1.15-.19.3-.29.45-.1.15-.19.3-.29.45-.1.15-.19.3-.29.45-.1.15-.19.3-.29.45-.1.15-.19.3-.29.45-.1.15-.19.3-.29.45-.1.15-.19.3-.29.45-.1.15-.19.3-.29.45-.1.15-.19.3-.29.45-.1.15-.19.3-.29.45-.1.15-.19.3-.29.45-.1.15-.19.3-.29.45-.1.15-.19.3-.29.45-.1.15-.19.3-.29.45-.1.15-.19.3-.29.45-.1.15-.19.3-.29.45-.1.15-.19.3-.29.45-.1.15-.19.3-.29.45-.1.15-.19.3-.29.45-.1.15-.19.3-.29.45-.1.15-.2.3-.29.45-.1.15-.19.3-.29.45-.1.15-.19.3-.29.45-.1.15-.19.3-.29.45-.1.15-.19.3-.29.45-.1.15-.19.3-.29.45-.1.15-.19.3-.29.45-.1.15-.19.3-.29.45-.1.15-.19.3-.29.45-.1.15-.19.3-.29.45-.1.15-.19.3-.29.45-.1.15-.19.3-.29.45-.1.15-.19.3-.29.45-.1.15-.19.3-.29.45-.1.15-.19.3-.29.45-.1.15-.19.3-.29.45-.1.15-.19.3-.29.45-.1.15-.19.3-.29.45-.1.15-.19.3-.29.45-.1.15-.19.3-.29.45-.1.15-.19.3-.29.45-.1.15-.19.3-.29.45-.1.15-.19.3-.29.45-.1.15-.2.3-.29.45-.1.15-.19.3-.29.45-.1.15-.19.3-.29.45-.1.15-.19.3-.29.45-.1.15-.19.3-.29.45-.1.15-.19.3-.29.45-.1.15-.19.3-.29.45-.1.15-.19.3-.29.45-.1.15-.19.3-.29.45-.1.15-.19.3-.29.45-.1.15-.2.3-.29.45-.1.15-.19.3-.29.45-.1.15-.2.3-.29.45-.1.15-.19.3-.29.45-.1.15-.19.3-.29.45-.1.15-.19.3-.29.45-.1.15-.2.3-.29.45-.1.15-.19.3-.29.45-.1.15-.19.3-.29.45-.1.15-.19.3-.29.45-.1.15-.2.3-.29.45-.1.15-.19.3-.29.45-.1.15-.2.3-.29.45-.1.15-.19.3-.29.45-.1.15-.19.3-.29.45-.1.15-.19.3-.29.45-.1.15-.2.3-.29.45-.1.15-.19.3-.29.45-.1.15-.2.3-.29.45-.1.15-.2.3-.29.45-.1.15-.19.3-.29.45-.1.15-.19.3-.29.45-4.88,7.13-3.21,17.33,4.12,23.48,7.32,6.15,17.66,6.02,23.83-.02.13-.12.26-.24.39-.37.13-.12.26-.24.39-.36.13-.12.26-.24.39-.36.13-.12.26-.24.39-.36.13-.12.26-.24.39-.37.13-.12.26-.24.39-.36.13-.12.26-.24.39-.37.13-.12.26-.24.39-.36.13-.12.26-.24.39-.36.13-.12.26-.24.39-.36.13-.12.26-.24.39-.37.13-.12.26-.24.39-.36.13-.12.26-.24.39-.37.13-.12.26-.24.39-.37.13-.12.26-.24.39-.36.13-.12.26-.24.39-.37.13-.12.26-.24.39-.36.13-.12.26-.24.39-.36.13-.12.26-.24.39-.36.13-.12.26-.24.39-.36.13-.12.26-.24.39-.36.13-.12.26-.24.39-.36.13-.12.26-.24.39-.36.13-.12.26-.24.39-.36.13-.12.26-.24.39-.37.13-.12.26-.24.39-.36.13-.12.26-.24.39-.36.13-.12.26-.24.39-.36.13-.12.26-.24.39-.36.13-.12.26-.24.39-.36.13-.12.26-.24.39-.36.13-.12.26-.24.39-.36.13-.12.26-.24.39-.37.13-.12.26-.24.39-.36.13-.12.26-.24.39-.36.13-.12.26-.24.39-.37.13-.12.26-.24.39-.36.13-.12.26-.24.39-.36.13-.12.26-.24.39-.37.13-.12.26-.24.39-.36.13-.12.26-.24.39-.36.13-.12.26-.24.39-.36.13-.12.26-.24.39-.36.13-.12.26-.24.39-.36.13-.12.26-.24.39-.36.13-.12.26-.24.39-.36.13-.12.26-.24.39-.36.13-.12.26-.24.39-.36.13-.12.26-.24.39-.36.13-.12.26-.24.39-.36.13-.12.26-.24.39-.36.13-.12.26-.24.39-.36.13-.12.26-.24.39-.36.13-.12.26-.24.39-.36.13-.12.26-.24.39-.36.13-.12.26-.24.39-.36.13-.12.26-.24.39-.37.13-.12.26-.24.39-.36.13-.12.26-.24.39-.36.13-.12.26-.24.39-.36.13-.12.26-.24.39-.36.13-.12.26-.24.39-.36.13-.12.26-.24.39-.37.13-.12.26-.24.39-.36.13-.12.26-.24.39-.36.13-.12.26-.24.39-.37.13-.12.26-.24.39-.36.13-.12.26-.24.39-.36.13-.12.26-.24.39-.37.13-.12.26-.24.39-.36.13-.12.26-.24.39-.36.13-.12.26-.24.39-.37.13-.12.26-.24.39-.36.13-.12.26-.24.39-.36.13-.12.26-.24.39-.37.13-.12.26-.24.39-.36.13-.12.26-.24.39-.36.13-.12.26-.24.39-.36.13-.12.26-.24.39-.36.13-.12.26-.24.39-.36.13-.12.26-.24.39-.36.13-.12.26-.24.39-.36.13-.12.26-.24.39-.37.13-.12.26-.24.39-.36.13-.12.26-.24.39-.36.13-.12.26-.24.39-.36.13-.12.26-.24.39-.36.13-.12.26-.24.39-.36.13-.12.26-.24.39-.37.13-.12.26-.24.39-.36.13-.12.26-.24.39-.36.13-.12.26-.24.39-.36.13-.12.26-.24.39-.36.13-.12.26-.24.39-.36.13-.12.26-.24.39-.36.13-.12.26-.24.39-.36.13-.12.26-.24.39-.36.13-.12.26-.24.39-.37.13-.12.26-.24.39-.36.13-.12.26-.24.39-.36.13-.12.26-.24.39-.36.13-.12.26-.24.39-.36.13-.12.26-.24.39-.37.13-.12.26-.24.39-.37.13-.12.26-.24.39-.36.13-.12.26-.24.39-.36.13-.12.26-.24.39-.36.13-.12.26-.24.39-.36.13-.12.26-.24.39-.36.13-.12.26-.24.39-.36.13-.12.26-.24.39-.36.13-.12.26-.24.39-.37.13-.12.26-.24.39-.36.13-.12.26-.24.39-.36.13-.12.26-.24.39-.36.13-.12.26-.24.39-.36.13-.12.26-.24.39-.37.13-.12.26-.24.39-.36.13-.12.26-.24.39-.37.13-.12.26-.24.39-.36.13-.12.26-.24.39-.37.13-.12.26-.24.39-.36.13-.12.26-.24.39-.36.13-.12.26-.24.39-.37.13-.12.26-.24.39-.36.13-.12.26-.24.39-.36.13-.12.26-.24.39-.36.13-.12.26-.24.39-.37.13-.12.26-.24.39-.36.13-.12.26-.24.39-.36.13-.12.26-.24.39-.37.13-.12.26-.24.39-.36.13-.12.26-.24.39-.36.13-.12.26-.24.39-.37.13-.12.26-.24.39-.36.13-.12.26-.24.39-.37.13-.12.26-.24.39-.36.13-.12.26-.24.39-.36.13-.12.26-.24.39-.37.13-.12.26-.24.39-.36.13-.12.26-.24.39-.36.13-.12.26-.24.39-.37.13-.12.26-.24.39-.36.13-.12.26-.24.39-.36.13-.12.26-.24.39-.37.13-.12.26-.24.39-.36.13-.12.26-.24.39-.36.13-.12.26-.24.39-.36.13-.12.26-.24.39-.36.13-.12.26-.24.39-.37.13-.12.26-.24.39-.36.13-.12.26-.24.39-.36.13-.12.26-.24.39-.37.13-.12.26-.24.39-.36.13-.12.26-.24.39-.36.13-.12.26-.24.39-.37.13-.12.26-.24.39-.36.13-.12.26-.24.39-.36.13-.12.26-.24.39-.37.13-.12.26-.24.39-.36.13-.12.26-.24.39-.36.13-.12.26-.24.39-.37.13-.12.26-.24.39-.36.13-.12.26-.24.39-.36.13-.12.26-.24.39-.37.13-.12.26-.24.39-.36.13-.12.26-.24.39-.36.13-.12.26-.24.39-.37.13-.12.26-.24.39-.36.13-.12.26-.24.39-.36.13-.12.26-.24.39-.37.13-.12.26-.24.39-.36.13-.12.26-.24.39-.36.13-.12.26-.24.39-.37.13-.12.26-.24.39-.36.13-.12.26-.24.39-.37.13-.12.26-.24.39-.36.13-.12.26-.24.39-.37.13-.12.26-.24.39-.36.13-.12.26-.24.39-.36.13-.12.26-.24.39-.37.13-.12.26-.24.39-.36.78-.72,1.53-1.49,2.23-2.32,9.98-11.89,7.59-30.32-5.33-41.17Z"/>
        <circle class="cls-2" cx="32.42" cy="91.94" r="32.42"/>
        <circle class="cls-2" cx="189.65" cy="70.45" r="25.3"/>
        <circle class="cls-2" cx="279.79" cy="167.79" r="17.83"/>
      </g>
    </g>
  </g>
</svg>