<?xml version="1.0" encoding="UTF-8"?>
<svg id="Layer_2" data-name="Layer 2" xmlns="http://www.w3.org/2000/svg" viewBox="0 0 201.23 125.5">
  <defs>
    <style>
      .cls-1 {
        fill: #202437;
      }
    </style>
  </defs>
  <g id="Front_Page" data-name="Front Page">
    <g id="Logo">
      <g id="Version_3.1.3" data-name="Version 3.1.3">
        <path class="cls-1" d="M82.66,96.34c.04-.13.08-.25.12-.38.04-.13.08-.25.12-.38.04-.13.08-.25.12-.38.04-.13.08-.25.12-.38.04-.13.08-.25.12-.38.04-.13.08-.25.12-.38.04-.13.08-.25.12-.38.04-.13.08-.25.12-.38.04-.13.08-.25.12-.38.04-.13.08-.25.12-.38.04-.13.08-.25.12-.38.04-.13.08-.25.12-.38.04-.13.08-.25.12-.38.04-.13.08-.25.12-.38.04-.13.08-.25.12-.38.04-.13.08-.25.12-.38.04-.13.08-.25.12-.38.04-.13.08-.25.12-.38.04-.13.08-.25.12-.38.04-.13.08-.25.12-.38.04-.13.08-.25.12-.38.04-.13.08-.25.12-.38.04-.13.08-.25.12-.38.04-.13.08-.25.12-.38.04-.13.08-.25.12-.38.04-.13.08-.25.12-.38.04-.13.08-.25.12-.38.04-.13.08-.25.12-.38.04-.13.08-.25.12-.38.04-.13.08-.25.12-.38.04-.13.08-.25.12-.38.04-.13.08-.25.12-.38.04-.13.08-.25.12-.38.04-.13.08-.25.12-.38.04-.13.08-.25.12-.38.04-.13.08-.25.12-.38.04-.13.08-.25.12-.38.04-.13.08-.25.12-.38.04-.13.08-.25.12-.38.04-.13.08-.25.12-.38.04-.13.08-.25.12-.38.04-.13.08-.25.12-.38.04-.13.08-.25.12-.38.04-.13.08-.25.12-.38.04-.13.08-.25.12-.38.04-.13.08-.25.12-.38.04-.13.08-.25.12-.38.04-.13.08-.25.12-.38.04-.13.08-.25.12-.38.04-.13.08-.25.12-.38.04-.13.08-.25.12-.38.04-.13.08-.25.12-.38.04-.13.08-.25.12-.38.04-.13.08-.25.12-.38.04-.13.08-.25.12-.38.04-.13.08-.25.12-.38.04-.13.08-.25.12-.38.04-.13.08-.25.12-.38.04-.13.08-.25.12-.38.04-.13.08-.25.12-.38.04-.13.08-.25.12-.38.04-.13.08-.25.12-.38.04-.13.08-.25.12-.38.04-.13.08-.25.12-.38.04-.13.08-.25.12-.38.04-.13.08-.25.12-.38.04-.13.08-.25.12-.38.04-.13.08-.25.12-.38.04-.13.08-.25.12-.38.04-.13.08-.25.12-.38.04-.13.08-.25.12-.38.04-.13.08-.25.12-.38.04-.13.08-.25.12-.38.04-.13.08-.25.12-.38.04-.13.08-.25.12-.38.04-.13.08-.25.12-.38.04-.13.08-.25.12-.38.04-.13.08-.25.12-.38.04-.13.08-.25.12-.38.04-.13.08-.25.12-.38.04-.13.08-.25.12-.38.04-.13.08-.25.12-.38.04-.13.08-.25.12-.38.04-.13.08-.25.12-.38.04-.13.08-.25.12-.38.04-.13.08-.25.12-.38.04-.13.08-.25.12-.38.04-.13.08-.25.12-.38.04-.13.08-.25.12-.38.04-.13.08-.25.12-.38.04-.13.08-.25.12-.38.04-.13.08-.25.12-.38.04-.13.08-.25.12-.38.04-.13.08-.25.12-.38.04-.13.08-.25.12-.38.04-.13.08-.25.12-.38.04-.13.08-.25.12-.38.04-.13.08-.25.12-.38.04-.13.08-.25.12-.38.04-.13.08-.25.12-.38.04-.13.08-.25.12-.38.04-.13.08-.25.12-.38.04-.13.08-.25.12-.38.04-.13.08-.25.12-.38.04-.13.08-.25.12-.38.04-.13.08-.25.12-.38.04-.13.08-.25.12-.38.04-.13.08-.25.12-.38.04-.13.08-.25.12-.38.04-.13.08-.25.12-.38.04-.13.08-.25.12-.38.04-.13.08-.25.12-.38.04-.13.08-.25.12-.38.04-.13.08-.25.12-.38.04-.13.08-.25.12-.38.04-.13.08-.25.12-.38.04-.13.08-.25.12-.38.04-.13.08-.25.12-.38.04-.13.08-.25.12-.38.04-.13.08-.25.12-.38.04-.13.08-.25.12-.38.04-.13.08-.25.12-.38.04-.13.08-.25.12-.38.04-.13.08-.25.12-.38.04-.13.08-.25.12-.38.04-.13.08-.25.12-.38.04-.13.08-.25.12-.38.04-.13.08-.25.12-.38.04-.13.08-.25.12-.38.04-.13.08-.25.12-.38.04-.13.08-.25.12-.38.04-.13.08-.25.12-.38.04-.13.08-.25.12-.38.04-.13.08-.25.12-.38.04-.13.08-.25.12-.38.04-.13.08-.25.12-.38.04-.13.08-.25.12-.38.04-.13.08-.25.12-.38.04-.13.08-.25.12-.38.04-.12.08-.24.11-.36,0-.03.02-.05.03-.08.02-.08.05-.16.08-.24.04-.14.09-.27.13-.41.04-.13.08-.25.12-.38.04-.13.08-.25.12-.38.04-.13.08-.25.12-.38.04-.13.08-.25.12-.38.04-.13.08-.25.12-.38.04-.13.08-.25.12-.38.04-.13.08-.25.12-.38.04-.13.08-.25.12-.38.04-.13.08-.25.12-.38.04-.13.08-.25.12-.38.04-.13.08-.25.12-.38.04-.13.08-.25.12-.38.04-.13.08-.25.12-.38.04-.13.08-.25.12-.38.04-.13.08-.25.12-.38.04-.13.08-.25.12-.38.04-.13.08-.25.12-.38.04-.13.08-.25.12-.38.04-.13.08-.25.12-.38.04-.13.08-.25.12-.38.04-.13.08-.25.12-.38.04-.13.08-.25.12-.38.04-.13.08-.25.12-.38.04-.13.08-.25.12-.38.04-.13.08-.25.12-.38.04-.13.08-.25.12-.38.04-.13.08-.25.12-.38.04-.13.08-.25.12-.38.04-.13.08-.25.12-.38.04-.13.08-.25.12-.38.04-.13.08-.25.12-.38.04-.13.08-.25.12-.38.04-.13.08-.25.12-.38.04-.13.08-.25.12-.38.04-.13.08-.25.12-.38.04-.13.08-.25.12-.38.04-.13.08-.25.12-.38.04-.13.08-.25.12-.38.24-.78.44-1.57.59-2.39,2.02-11.43-6.52-22.5-19.07-24.71-12.55-2.21-24.36,5.26-26.37,16.7-.14.82-.23,1.63-.27,2.44,0,.13-.01.27-.02.4,0,.13-.01.27-.02.4,0,.13-.01.27-.02.4,0,.13-.01.27-.02.4,0,.13-.01.27-.02.4,0,.13-.01.27-.02.4,0,.13-.01.27-.02.4,0,.13-.01.27-.02.4,0,.13-.01.27-.02.4,0,.13-.01.27-.02.4,0,.13-.01.27-.02.4,0,.13-.01.27-.02.4,0,.13-.01.27-.02.4,0,.13-.01.27-.02.4,0,.13-.01.27-.02.4,0,.13-.01.27-.02.4,0,.13-.01.27-.02.4,0,.13-.01.27-.02.4,0,.13-.01.27-.02.4,0,.13-.01.27-.02.4,0,.13-.01.27-.02.4,0,.13-.01.27-.02.4,0,.13-.01.27-.02.4,0,.13-.01.27-.02.4,0,.13-.01.27-.02.4,0,.13-.01.27-.02.4,0,.13-.01.27-.02.4,0,.13-.01.27-.02.4,0,.13-.01.27-.02.4,0,.13-.01.27-.02.4,0,.13-.01.27-.02.4,0,.13-.01.27-.02.4,0,.13-.01.27-.02.4,0,.13-.01.27-.02.4,0,.13-.01.27-.02.4,0,.13-.01.27-.02.4,0,.13-.01.27-.02.4,0,.13-.01.27-.02.4,0,.13-.01.27-.02.4,0,.13-.01.27-.02.4,0,.13-.01.27-.02.4,0,.13-.01.27-.02.4,0,.13-.01.27-.02.4,0,.13-.01.27-.02.4,0,.13-.01.27-.02.4,0,.13-.01.27-.02.4,0,.13-.01.27-.02.4,0,.13-.01.27-.02.4,0,.13-.01.27-.02.4,0,.13-.01.27-.02.4,0,.13-.01.27-.02.4,0,.13-.01.27-.02.4,0,.13-.01.27-.02.4,0,.13-.01.27-.02.4,0,.13-.01.27-.02.4,0,.13-.01.27-.02.4,0,.13-.01.27-.02.4,0,.13-.01.27-.02.4,0,.13-.01.27-.02.4,0,.13-.01.27-.02.4,0,.13-.01.27-.02.4,0,.13-.01.27-.02.4,0,.13-.01.27-.02.4,0,.13-.01.27-.02.4,0,.13-.01.27-.02.4,0,.13-.01.27-.02.4,0,.13-.01.27-.02.4,0,.13-.01.27-.02.4-.01.14-.01.29-.02.43,0,.08,0,.17,0,.25,0,.03,0,.06,0,.08,0,.13-.01.25-.02.38,0,.13-.01.27-.02.4,0,.13-.01.27-.02.4,0,.13-.01.27-.02.4,0,.13-.01.27-.02.4,0,.13-.01.27-.02.4,0,.13-.01.27-.02.4,0,.13-.01.27-.02.4,0,.13-.01.27-.02.4,0,.13-.01.27-.02.4,0,.13-.01.27-.02.4,0,.13-.01.27-.02.4,0,.13-.01.27-.02.4,0,.13-.01.27-.02.4,0,.13-.01.27-.02.4,0,.13-.01.27-.02.4,0,.13-.01.27-.02.4,0,.13-.01.27-.02.4,0,.13-.01.27-.02.4,0,.13-.01.27-.02.4,0,.13-.01.27-.02.4,0,.13-.01.27-.02.4,0,.13-.01.27-.02.4,0,.13-.01.27-.02.4,0,.13-.01.27-.02.4,0,.13-.01.27-.02.4,0,.13-.01.27-.02.4,0,.13-.01.27-.02.4,0,.13-.01.27-.02.4,0,.13-.01.27-.02.4,0,.13-.01.27-.02.4,0,.13-.01.27-.02.4,0,.13-.01.27-.02.4,0,.13-.01.27-.02.4,0,.13-.01.27-.02.4,0,.13-.01.27-.02.4,0,.13-.01.27-.02.4,0,.13-.01.27-.02.4,0,.13-.01.27-.02.4,0,.13-.01.27-.02.4,0,.13-.01.27-.02.4,0,.13-.01.27-.02.4,0,.13-.01.27-.02.4,0,.13-.01.27-.02.4,0,.13-.01.27-.02.4,0,.13-.01.27-.02.4,0,.13-.01.27-.02.4,0,.13-.01.27-.02.4,0,.13-.01.27-.02.4,0,.13-.01.27-.02.4,0,.13-.01.27-.02.4,0,.13-.01.27-.02.4,0,.13-.01.27-.02.4,0,.13-.01.27-.02.4,0,.13-.01.27-.02.4,0,.13-.01.27-.02.4,0,.13-.01.27-.02.4,0,.13-.01.27-.02.4,0,.13-.01.27-.02.4,0,.13-.01.27-.02.4,0,.13-.01.27-.02.4,0,.13-.01.27-.02.4,0,.13-.01.27-.02.4,0,.13-.01.27-.02.4,0,.13-.01.27-.02.4,0,.13-.01.27-.02.4,0,.13-.01.27-.02.4,0,.13-.01.27-.02.4,0,.13-.01.27-.02.4,0,.13-.01.27-.02.4,0,.13-.01.27-.02.4,0,.13-.01.27-.02.4,0,.13-.01.27-.02.4-.01.13-.01.27-.02.4-.01.13-.01.27-.02.4,0,.13-.01.27-.02.4,0,.13-.01.27-.02.4-.01.13-.01.27-.02.4-.01.13-.01.27-.02.4-.01.13-.01.27-.02.4-.01.13-.01.27-.02.4-.01.13-.01.27-.02.4-.01.13-.01.27-.02.4-.01.13-.01.27-.02.4-.01.13-.01.27-.02.4-.01.13-.01.27-.02.4-.01.13-.01.27-.02.4-.01.13-.01.27-.02.4-.01.13-.01.27-.02.4-.01.13-.01.27-.02.4-.01.13-.01.27-.02.4-.01.13-.01.27-.02.4-.01.13-.01.27-.02.4-.01.13-.01.27-.02.4-.01.13-.01.27-.02.4-.01.13-.01.27-.02.4-.01.13-.01.27-.02.4-.01.13-.01.27-.02.4-.01.13-.01.27-.02.4-.01.13-.01.27-.02.4-.01.13-.01.27-.02.4-.01.13-.01.27-.02.4-.01.13-.01.27-.02.4-.01.13-.01.27-.02.4-.01.13-.01.27-.02.4-.01.13-.01.27-.02.4-.01.13-.01.27-.02.4-.01.13-.01.27-.02.4-.01.13-.01.27-.02.4-.01.13-.01.27-.02.4-.01.13-.01.27-.02.4-.01.13-.01.27-.02.4-.49,6.44,4.47,12.43,11.58,13.69,7.11,1.25,13.82-2.68,15.56-8.9.04-.13.08-.25.12-.38.04-.13.08-.25.12-.38Z"/>
        <path class="cls-1" d="M193.33,46.21c-8.74-7.33-21.29-6.76-28.04,1.29-.47.56-.89,1.15-1.28,1.76-.07.1-.13.2-.2.3-.07.1-.13.2-.2.3-.07.1-.13.2-.2.3-.07.1-.13.2-.2.3-.07.1-.13.2-.2.3-.07.1-.13.2-.2.31-.07.1-.13.2-.2.3-.07.1-.13.2-.2.3-.07.1-.13.2-.2.3-.07.1-.13.2-.2.3-.07.1-.13.2-.2.3-.07.1-.13.2-.2.3-.07.1-.13.2-.2.3-.07.1-.13.2-.2.3-.07.1-.13.2-.2.3-.07.1-.13.2-.2.31-.07.1-.13.2-.2.3-.07.1-.13.2-.2.3-.07.1-.13.2-.2.3-.07.1-.13.2-.2.3-.07.1-.13.2-.2.3-.07.1-.13.2-.2.3-.07.1-.13.2-.2.3-.07.1-.13.2-.2.3-.07.1-.13.2-.2.3-.07.1-.13.2-.2.3-.07.1-.13.2-.2.3-.07.1-.13.2-.2.3-.07.1-.13.2-.2.31-.07.1-.13.2-.2.3-.07.1-.13.2-.2.3-.07.1-.13.2-.2.3-.07.1-.13.2-.2.3-.07.1-.13.2-.2.3-.07.1-.13.2-.2.3-.07.1-.13.2-.2.3-.07.1-.13.2-.2.3-.07.1-.13.2-.2.3-.07.1-.13.2-.2.31-.07.1-.13.2-.2.3-.07.1-.13.2-.2.3-.07.1-.13.2-.2.3-.07.1-.13.2-.2.3-.07.1-.13.2-.2.3-.07.1-.13.2-.2.31-.07.1-.13.2-.2.3-.07.1-.13.2-.2.3-.07.1-.13.2-.2.3-.07.1-.13.2-.2.3-.07.1-.13.2-.2.3-.07.1-.13.2-.2.3-.07.1-.13.2-.2.3-.07.1-.13.2-.2.3-.07.1-.13.2-.2.3-.07.1-.13.2-.2.3-.07.1-.13.2-.2.3-.07.1-.13.2-.2.3-.07.1-.13.2-.2.3-.07.1-.13.2-.2.3-.07.1-.13.2-.2.3-.07.1-.13.2-.2.3-.07.1-.13.2-.2.3-.07.1-.13.2-.2.3-.07.1-.13.2-.2.3-.07.1-.13.2-.2.3-.07.1-.13.2-.2.3-.07.1-.13.2-.2.3-.07.1-.13.2-.2.3-.07.1-.13.2-.2.31-.07.1-.13.2-.2.3-.07.1-.13.2-.2.3-.07.1-.13.2-.2.3-.07.1-.13.2-.2.3-.07.1-.13.2-.2.3-.07.1-.13.2-.2.3-.07.1-.13.2-.2.3-.07.1-.13.2-.2.3-.07.1-.13.2-.2.3-.07.1-.13.2-.2.3-.07.1-.13.2-.2.3-.07.1-.13.2-.2.3-.07.1-.13.2-.2.3-.07.1-.13.2-.2.3-.07.1-.13.2-.2.3-.07.1-.13.2-.2.3-.07.1-.13.2-.2.3-.07.1-.13.2-.2.3-.07.1-.13.2-.2.31-.07.1-.13.2-.2.3-.07.1-.13.2-.2.31-.07.1-.13.2-.2.3-.07.1-.13.2-.2.3-.07.1-.13.2-.2.3-.07.1-.13.2-.2.3-.07.1-.13.2-.2.3-.07.1-.13.2-.2.3-.07.1-.13.2-.2.3-.07.1-.13.2-.2.3-.07.1-.13.2-.2.3-.07.1-.13.2-.2.3-.07.1-.13.2-.2.3-.07.1-.13.2-.2.3-.07.1-.13.2-.2.3-.07.1-.13.2-.2.3-.07.1-.13.2-.2.3-.07.1-.13.2-.2.3-.07.1-.13.2-.2.3-.07.1-.13.2-.2.3-.07.1-.13.2-.2.3-.07.1-.13.2-.2.3-.07.1-.13.2-.2.3-.07.1-.13.2-.2.3-.07.1-.13.2-.2.3-.07.1-.13.2-.2.3-.07.1-.13.2-.2.3-.07.1-.13.2-.2.3-.07.1-.13.2-.2.3-.07.1-.13.2-.2.31-.07.1-.13.2-.2.3-.07.1-.13.2-.2.3-.07.1-.13.2-.2.3-.07.1-.13.2-.2.3-.07.1-.13.2-.2.3-.07.1-.13.2-.2.3-.07.1-.13.2-.2.3-.07.1-.13.2-.2.3-.07.1-.13.2-.2.3-.07.1-.13.2-.2.31-.07.1-.13.2-.2.3-.07.1-.13.2-.2.3-.07.1-.13.2-.2.31-.07.1-.13.2-.2.3-.07.1-.13.2-.2.3-.07.1-.13.2-.2.3-.07.1-.13.2-.2.3-.07.1-.13.2-.2.3-.07.1-.13.2-.2.3-.07.1-.13.2-.2.3-.07.1-.13.2-.2.3-.07.1-.13.2-.2.3-.07.1-.13.2-.2.31-.07.1-.13.2-.2.3-.07.1-.13.2-.2.3-.07.1-.13.2-.2.3-.07.1-.13.2-.2.3-.07.1-.13.2-.2.3-.07.1-.13.2-.2.3-.07.1-.13.2-.2.3-.07.1-.13.2-.2.3-.07.1-.13.2-.2.3-.07.1-.13.2-.2.31-.07.1-.13.2-.2.3-.07.1-.13.2-.2.3-.07.1-.13.2-.2.3-.07.1-.13.2-.2.3-.07.1-.13.2-.2.3-.07.1-.13.2-.2.3-.07.1-.13.2-.2.3-.07.1-.13.2-.2.3-.07.1-.13.2-.2.3-.07.1-.13.2-.2.3-.07.1-.13.2-.2.3-.07.1-.13.2-.2.3-.07.1-.13.2-.2.3-.07.1-.13.2-.2.3-.07.1-.13.2-.2.3-.07.1-.13.2-.2.3-.07.1-.13.2-.2.3-.07.1-.13.2-.2.3-.07.1-.13.2-.2.3-.07.1-.13.2-.2.3-.07.1-.13.2-.2.3-.07.1-.13.2-.2.3-.07.1-.13.2-.2.3-.07.1-.13.2-.2.3-.07.1-.13.2-.2.3-.07.1-.13.2-.2.31-.07.1-.13.2-.2.3-.07.1-.13.2-.2.31-.07.1-.13.2-.2.3-.07.1-.13.2-.2.3-.07.1-.13.2-.2.3-3.3,4.82-2.17,11.72,2.78,15.87,4.95,4.16,11.94,4.07,16.11-.02.09-.08.18-.16.27-.25.09-.08.18-.16.27-.25.09-.08.18-.16.27-.25.09-.08.18-.16.27-.25.09-.08.18-.16.27-.25.09-.08.18-.16.27-.25.09-.08.18-.16.27-.25.09-.08.18-.16.27-.25.09-.08.18-.16.26-.25.09-.08.18-.16.27-.25.09-.08.18-.16.27-.25.09-.08.18-.16.27-.25.09-.08.18-.16.27-.25.09-.08.18-.16.27-.25.09-.08.18-.16.26-.25.09-.08.18-.16.27-.25.09-.08.18-.16.27-.25.09-.08.18-.16.27-.25.09-.08.18-.16.27-.25.09-.08.18-.16.27-.25.09-.08.18-.16.27-.25.09-.08.18-.16.27-.25.09-.08.18-.16.27-.25.09-.08.18-.16.27-.25.09-.08.18-.16.27-.25.09-.08.18-.16.27-.25.09-.08.18-.16.27-.25.09-.08.18-.16.27-.25.09-.08.18-.16.27-.25.09-.08.18-.16.27-.25.09-.08.18-.16.27-.25.09-.08.18-.16.27-.25.09-.08.18-.16.27-.25.09-.08.18-.16.27-.25.09-.08.18-.16.27-.25.09-.08.18-.16.27-.25.09-.08.18-.16.27-.25.09-.08.18-.16.27-.25.09-.08.18-.16.27-.25.09-.08.18-.16.27-.25.09-.08.18-.16.27-.25.09-.08.18-.16.27-.25.09-.08.18-.16.27-.25.09-.08.18-.16.27-.25.09-.08.18-.16.27-.25.09-.08.18-.16.27-.25.09-.08.18-.16.27-.25.09-.08.18-.16.27-.25.09-.08.18-.16.27-.25.09-.08.18-.16.27-.25.09-.08.18-.16.27-.25.09-.08.18-.16.27-.25.09-.08.18-.16.27-.25.09-.08.18-.16.27-.25.09-.08.18-.16.27-.25.09-.08.18-.16.26-.25.09-.08.18-.16.27-.25.09-.08.18-.16.27-.25.09-.08.18-.16.27-.25.09-.08.18-.16.27-.25.09-.08.18-.16.27-.25.09-.08.18-.16.26-.25.09-.08.18-.16.27-.25.09-.08.18-.16.27-.25.09-.08.18-.16.27-.25.09-.08.18-.16.27-.25.09-.08.18-.16.27-.25.09-.08.18-.16.26-.25.09-.08.18-.16.27-.25.09-.08.18-.16.27-.25.09-.08.18-.16.27-.25.09-.08.18-.16.27-.25.09-.08.18-.16.26-.25.09-.08.18-.16.27-.25.09-.08.18-.16.27-.25.09-.08.18-.16.27-.25.09-.08.18-.16.27-.25.09-.08.18-.16.27-.25.09-.08.18-.16.27-.25.09-.08.18-.16.27-.25.09-.08.18-.16.27-.25.09-.08.18-.16.27-.25.09-.08.18-.16.27-.25.09-.08.18-.16.27-.25.09-.08.18-.16.27-.25.09-.08.18-.16.27-.25.09-.08.18-.16.27-.25.09-.08.18-.16.26-.25.09-.08.18-.16.27-.25.09-.08.18-.16.27-.25.09-.08.18-.16.27-.25.09-.08.18-.16.27-.25.09-.08.18-.16.27-.25.09-.08.18-.16.27-.25.09-.08.18-.16.27-.25.09-.08.18-.16.27-.25.09-.08.18-.16.27-.25.09-.08.18-.16.27-.25.09-.08.18-.16.26-.25.09-.08.18-.16.27-.25.09-.08.18-.16.27-.25.09-.08.18-.16.26-.25.09-.08.18-.16.27-.25.09-.08.18-.16.27-.25.09-.08.18-.16.27-.25.09-.08.18-.16.27-.25.09-.08.18-.16.27-.25.09-.08.18-.16.27-.25.09-.08.18-.16.27-.25.09-.08.18-.16.27-.25.09-.08.18-.16.27-.25.09-.08.18-.16.27-.25.09-.08.18-.16.27-.25.09-.08.18-.16.27-.25.09-.08.18-.16.27-.25.09-.08.18-.16.27-.25.09-.08.18-.16.27-.25.09-.08.18-.16.27-.25.09-.08.18-.16.27-.25.09-.08.18-.16.26-.25.09-.08.18-.16.27-.25.09-.08.18-.16.27-.25.09-.08.18-.16.27-.25.09-.08.18-.16.27-.25.09-.08.18-.16.27-.25.09-.08.18-.16.27-.25.09-.08.18-.16.27-.25.09-.08.18-.16.27-.25.09-.08.18-.16.27-.25.09-.08.18-.16.27-.25.09-.08.18-.16.27-.25.09-.08.18-.16.27-.25.09-.08.18-.16.27-.25.09-.08.18-.16.27-.25.09-.08.18-.16.27-.25.09-.08.18-.16.27-.25.09-.08.18-.16.27-.25.09-.08.18-.16.26-.25.09-.08.18-.16.27-.25.09-.08.18-.16.27-.25.09-.08.18-.16.26-.25.09-.08.18-.16.27-.25.09-.08.18-.16.27-.25.09-.08.18-.16.27-.25.09-.08.18-.16.27-.25.09-.08.18-.16.27-.25.09-.08.18-.16.27-.25.09-.08.18-.16.27-.25.09-.08.18-.16.27-.25.09-.08.18-.16.27-.25.09-.08.18-.16.27-.25.09-.08.18-.16.27-.25.09-.08.18-.16.27-.25.09-.08.18-.16.27-.25.09-.08.18-.16.26-.25.09-.08.18-.16.27-.25.09-.08.18-.16.27-.25.09-.08.18-.16.27-.25.09-.08.18-.16.27-.25.09-.08.18-.16.27-.25.09-.08.18-.16.27-.25.09-.08.18-.16.27-.25.09-.08.18-.16.27-.25.09-.08.18-.16.27-.25.09-.08.18-.16.27-.25.09-.08.18-.16.26-.25.09-.08.18-.16.27-.25.09-.08.18-.16.27-.25.09-.08.18-.16.27-.25.09-.08.18-.16.27-.25.09-.08.18-.16.27-.25.09-.08.18-.16.27-.25.09-.08.18-.16.27-.25.09-.08.18-.16.27-.25.09-.08.18-.16.27-.25.09-.08.18-.16.27-.25.09-.08.18-.16.27-.25.09-.08.18-.16.27-.25.09-.08.18-.16.27-.25.09-.08.18-.16.27-.25.09-.08.18-.16.27-.25.09-.08.18-.16.27-.25.53-.49,1.03-1.01,1.51-1.57,6.75-8.04,5.13-20.5-3.6-27.84Z"/>
        <circle class="cls-1" cx="21.92" cy="62.16" r="21.92"/>
        <circle class="cls-1" cx="128.23" cy="47.63" r="17.11"/>
        <circle class="cls-1" cx="189.18" cy="113.45" r="12.05"/>
      </g>
    </g>
  </g>
</svg>