<svg width="900" height="63" viewBox="0 0 900 63" fill="none" xmlns="http://www.w3.org/2000/svg">
<path d="M900 52.0001L878.5 38.7001C857 25.3001 814 -1.29992 771.2 0.500073C728.3 2.30007 685.7 32.7001 642.8 43.0001C600 53.3001 557 43.7001 514.2 45.0001C471.3 46.3 428.7 58.7001 385.8 54.7001C343 50.7 300 30.3 257.2 35.5C214.3 40.7 171.7 49.3 128.8 59C86 68.7 43 57.3 21.5 51.7L1.46659e-06 46L5.48803e-06 1.28722e-05L21.5 1.47518e-05C43 1.66314e-05 86 2.03906e-05 128.8 2.41323e-05C171.7 2.78827e-05 214.3 3.16069e-05 257.2 3.53574e-05C300 3.90991e-05 343 4.28582e-05 385.8 4.65999e-05C428.7 5.03504e-05 471.3 5.40746e-05 514.2 5.7825e-05C557 6.15667e-05 600 6.53259e-05 642.8 6.90676e-05C685.7 7.2818e-05 728.3 7.65422e-05 771.2 8.02927e-05C814 8.40344e-05 857 8.77936e-05 878.5 8.96731e-05L900 9.15527e-05L900 52.0001Z" fill="#E93C79"/>
</svg>
